<svg xmlns="http://www.w3.org/2000/svg" xmlns:xlink="http://www.w3.org/1999/xlink" width="300" zoomAndPan="magnify" viewBox="0 0 506.25 374.999991" height="200" preserveAspectRatio="xMidYMid meet" version="1.0"><defs><g/><clipPath id="8bfe74f4b4"><path d="M 0 34 L 505.5 34 L 505.5 374.722656 L 0 374.722656 Z M 0 34 " clip-rule="nonzero"/></clipPath><clipPath id="e6f7f3cff1"><path d="M 0 0.277344 L 440 0.277344 L 440 247 L 0 247 Z M 0 0.277344 " clip-rule="nonzero"/></clipPath><clipPath id="5a2a89b023"><path d="M 1 317 L 4 317 L 4 325.410156 L 1 325.410156 Z M 1 317 " clip-rule="nonzero"/></clipPath><clipPath id="ad515c3658"><path d="M 6 313 L 9 313 L 9 325.410156 L 6 325.410156 Z M 6 313 " clip-rule="nonzero"/></clipPath><clipPath id="f678d2922f"><path d="M 11 309 L 14 309 L 14 325.410156 L 11 325.410156 Z M 11 309 " clip-rule="nonzero"/></clipPath><clipPath id="88ec6a5c95"><path d="M 16 304.742188 L 19 304.742188 L 19 325.410156 L 16 325.410156 Z M 16 304.742188 " clip-rule="nonzero"/></clipPath><clipPath id="46d2da7afd"><path d="M 21 304.742188 L 25 304.742188 L 25 325.410156 L 21 325.410156 Z M 21 304.742188 " clip-rule="nonzero"/></clipPath><clipPath id="75c0193526"><path d="M 27 306 L 30 306 L 30 325.410156 L 27 325.410156 Z M 27 306 " clip-rule="nonzero"/></clipPath><clipPath id="0e17047db8"><path d="M 32 319 L 35 319 L 35 325.410156 L 32 325.410156 Z M 32 319 " clip-rule="nonzero"/></clipPath><clipPath id="9bbb571ca6"><path d="M 37 316 L 40 316 L 40 325.410156 L 37 325.410156 Z M 37 316 " clip-rule="nonzero"/></clipPath><clipPath id="986885642f"><path d="M 42 304.742188 L 46 304.742188 L 46 325.410156 L 42 325.410156 Z M 42 304.742188 " clip-rule="nonzero"/></clipPath><clipPath id="33880c3761"><path d="M 48 305 L 51 305 L 51 325.410156 L 48 325.410156 Z M 48 305 " clip-rule="nonzero"/></clipPath><clipPath id="a64d50f516"><path d="M 53 304.742188 L 56 304.742188 L 56 325.410156 L 53 325.410156 Z M 53 304.742188 " clip-rule="nonzero"/></clipPath><clipPath id="c0eb94a6f1"><path d="M 58 310 L 61 310 L 61 325.410156 L 58 325.410156 Z M 58 310 " clip-rule="nonzero"/></clipPath><clipPath id="5710a15bc1"><path d="M 63 314 L 67 314 L 67 325.410156 L 63 325.410156 Z M 63 314 " clip-rule="nonzero"/></clipPath><clipPath id="cc2ad7508f"><path d="M 69 306 L 72 306 L 72 325.410156 L 69 325.410156 Z M 69 306 " clip-rule="nonzero"/></clipPath><clipPath id="cac8227650"><path d="M 74 304.742188 L 77 304.742188 L 77 325.410156 L 74 325.410156 Z M 74 304.742188 " clip-rule="nonzero"/></clipPath><clipPath id="21c04a19cf"><path d="M 79 304.742188 L 82 304.742188 L 82 325.410156 L 79 325.410156 Z M 79 304.742188 " clip-rule="nonzero"/></clipPath><clipPath id="e5aae4c18f"><path d="M 84 310 L 87 310 L 87 325.410156 L 84 325.410156 Z M 84 310 " clip-rule="nonzero"/></clipPath><clipPath id="b5c8cc8729"><path d="M 90 313 L 93 313 L 93 325.410156 L 90 325.410156 Z M 90 313 " clip-rule="nonzero"/></clipPath><clipPath id="8f747c3274"><path d="M 95 318 L 98 318 L 98 325.410156 L 95 325.410156 Z M 95 318 " clip-rule="nonzero"/></clipPath><clipPath id="a88ca6e710"><path d="M 100 313 L 103 313 L 103 325.410156 L 100 325.410156 Z M 100 313 " clip-rule="nonzero"/></clipPath><clipPath id="3736096909"><path d="M 105 317 L 108 317 L 108 325.410156 L 105 325.410156 Z M 105 317 " clip-rule="nonzero"/></clipPath><clipPath id="2419369802"><path d="M 110 313 L 113 313 L 113 325.410156 L 110 325.410156 Z M 110 313 " clip-rule="nonzero"/></clipPath><clipPath id="2a1b830cb2"><path d="M 116 309 L 119 309 L 119 325.410156 L 116 325.410156 Z M 116 309 " clip-rule="nonzero"/></clipPath><clipPath id="abf41e10d3"><path d="M 121 304.742188 L 124 304.742188 L 124 325.410156 L 121 325.410156 Z M 121 304.742188 " clip-rule="nonzero"/></clipPath><clipPath id="2db1d9828e"><path d="M 126 304.742188 L 129 304.742188 L 129 325.410156 L 126 325.410156 Z M 126 304.742188 " clip-rule="nonzero"/></clipPath><clipPath id="883079562d"><path d="M 131 306 L 134 306 L 134 325.410156 L 131 325.410156 Z M 131 306 " clip-rule="nonzero"/></clipPath><clipPath id="d47086b3ab"><path d="M 137 319 L 140 319 L 140 325.410156 L 137 325.410156 Z M 137 319 " clip-rule="nonzero"/></clipPath><clipPath id="fde2b4b38c"><path d="M 142 316 L 145 316 L 145 325.410156 L 142 325.410156 Z M 142 316 " clip-rule="nonzero"/></clipPath><clipPath id="d0a78c2b0e"><path d="M 147 304.742188 L 150 304.742188 L 150 325.410156 L 147 325.410156 Z M 147 304.742188 " clip-rule="nonzero"/></clipPath><clipPath id="52c0005255"><path d="M 152 305 L 155 305 L 155 325.410156 L 152 325.410156 Z M 152 305 " clip-rule="nonzero"/></clipPath><clipPath id="9cd8c3fc01"><path d="M 158 304.742188 L 161 304.742188 L 161 325.410156 L 158 325.410156 Z M 158 304.742188 " clip-rule="nonzero"/></clipPath><clipPath id="f6d4d4281a"><path d="M 163 310 L 166 310 L 166 325.410156 L 163 325.410156 Z M 163 310 " clip-rule="nonzero"/></clipPath><clipPath id="3c176b8d01"><path d="M 168 314 L 171 314 L 171 325.410156 L 168 325.410156 Z M 168 314 " clip-rule="nonzero"/></clipPath><clipPath id="646f760f92"><path d="M 173 306 L 176 306 L 176 325.410156 L 173 325.410156 Z M 173 306 " clip-rule="nonzero"/></clipPath><clipPath id="a03a57c726"><path d="M 179 304.742188 L 182 304.742188 L 182 325.410156 L 179 325.410156 Z M 179 304.742188 " clip-rule="nonzero"/></clipPath><clipPath id="960bab58df"><path d="M 184 304.742188 L 187 304.742188 L 187 325.410156 L 184 325.410156 Z M 184 304.742188 " clip-rule="nonzero"/></clipPath><clipPath id="4117cdbf7d"><path d="M 189 310 L 192 310 L 192 325.410156 L 189 325.410156 Z M 189 310 " clip-rule="nonzero"/></clipPath><clipPath id="24c6289ca5"><path d="M 194 313 L 197 313 L 197 325.410156 L 194 325.410156 Z M 194 313 " clip-rule="nonzero"/></clipPath><clipPath id="53d6c34db8"><path d="M 200 307 L 203 307 L 203 325.410156 L 200 325.410156 Z M 200 307 " clip-rule="nonzero"/></clipPath><clipPath id="24412293de"><path d="M 205 313 L 207.972656 313 L 207.972656 325.410156 L 205 325.410156 Z M 205 313 " clip-rule="nonzero"/></clipPath><clipPath id="61df514f35"><path d="M 136 342 L 169 342 L 169 374.722656 L 136 374.722656 Z M 136 342 " clip-rule="nonzero"/></clipPath><clipPath id="e690abf462"><path d="M 208 342 L 233 342 L 233 374.722656 L 208 374.722656 Z M 208 342 " clip-rule="nonzero"/></clipPath><clipPath id="6ac7d8bcc0"><path d="M 233 342 L 257 342 L 257 374.722656 L 233 374.722656 Z M 233 342 " clip-rule="nonzero"/></clipPath><clipPath id="0dfe9c0463"><path d="M 266 342 L 294 342 L 294 374.722656 L 266 374.722656 Z M 266 342 " clip-rule="nonzero"/></clipPath><clipPath id="077c6fb389"><path d="M 301 342 L 325 342 L 325 374.722656 L 301 374.722656 Z M 301 342 " clip-rule="nonzero"/></clipPath><clipPath id="9bc22a4ac1"><path d="M 367 342 L 395 342 L 395 374.722656 L 367 374.722656 Z M 367 342 " clip-rule="nonzero"/></clipPath><clipPath id="919534884c"><path d="M 459 342 L 483 342 L 483 374.722656 L 459 374.722656 Z M 459 342 " clip-rule="nonzero"/></clipPath><clipPath id="f4a91787f3"><path d="M 294 326 L 505.5 326 L 505.5 335 L 294 335 Z M 294 326 " clip-rule="nonzero"/></clipPath><clipPath id="6fe5560bf9"><path d="M 298.097656 317 L 301 317 L 301 324.992188 L 298.097656 324.992188 Z M 298.097656 317 " clip-rule="nonzero"/></clipPath><clipPath id="2c096c67bc"><path d="M 303 313 L 306 313 L 306 324.992188 L 303 324.992188 Z M 303 313 " clip-rule="nonzero"/></clipPath><clipPath id="98c15a177c"><path d="M 308 309 L 311 309 L 311 324.992188 L 308 324.992188 Z M 308 309 " clip-rule="nonzero"/></clipPath><clipPath id="c0aa0bacb1"><path d="M 313 304.328125 L 316 304.328125 L 316 324.992188 L 313 324.992188 Z M 313 304.328125 " clip-rule="nonzero"/></clipPath><clipPath id="8510fd228d"><path d="M 319 304.328125 L 322 304.328125 L 322 324.992188 L 319 324.992188 Z M 319 304.328125 " clip-rule="nonzero"/></clipPath><clipPath id="1c3d3f3c43"><path d="M 324 305 L 327 305 L 327 324.992188 L 324 324.992188 Z M 324 305 " clip-rule="nonzero"/></clipPath><clipPath id="59ce92e757"><path d="M 329 319 L 332 319 L 332 324.992188 L 329 324.992188 Z M 329 319 " clip-rule="nonzero"/></clipPath><clipPath id="c209f435fa"><path d="M 334 316 L 337 316 L 337 324.992188 L 334 324.992188 Z M 334 316 " clip-rule="nonzero"/></clipPath><clipPath id="96906a03e5"><path d="M 340 304.328125 L 343 304.328125 L 343 324.992188 L 340 324.992188 Z M 340 304.328125 " clip-rule="nonzero"/></clipPath><clipPath id="2752a8632c"><path d="M 345 304.328125 L 348 304.328125 L 348 324.992188 L 345 324.992188 Z M 345 304.328125 " clip-rule="nonzero"/></clipPath><clipPath id="b5a4e362ae"><path d="M 350 304.328125 L 353 304.328125 L 353 324.992188 L 350 324.992188 Z M 350 304.328125 " clip-rule="nonzero"/></clipPath><clipPath id="bf31966dae"><path d="M 355 309 L 358 309 L 358 324.992188 L 355 324.992188 Z M 355 309 " clip-rule="nonzero"/></clipPath><clipPath id="30f753a045"><path d="M 361 314 L 364 314 L 364 324.992188 L 361 324.992188 Z M 361 314 " clip-rule="nonzero"/></clipPath><clipPath id="35ec732ad5"><path d="M 366 306 L 369 306 L 369 324.992188 L 366 324.992188 Z M 366 306 " clip-rule="nonzero"/></clipPath><clipPath id="850c1e4d1d"><path d="M 371 304.328125 L 374 304.328125 L 374 324.992188 L 371 324.992188 Z M 371 304.328125 " clip-rule="nonzero"/></clipPath><clipPath id="82e9a12482"><path d="M 376 304.328125 L 379 304.328125 L 379 324.992188 L 376 324.992188 Z M 376 304.328125 " clip-rule="nonzero"/></clipPath><clipPath id="41009a4aae"><path d="M 382 310 L 385 310 L 385 324.992188 L 382 324.992188 Z M 382 310 " clip-rule="nonzero"/></clipPath><clipPath id="6c9c6ace09"><path d="M 387 313 L 390 313 L 390 324.992188 L 387 324.992188 Z M 387 313 " clip-rule="nonzero"/></clipPath><clipPath id="a9b23adf6b"><path d="M 392 317 L 395 317 L 395 324.992188 L 392 324.992188 Z M 392 317 " clip-rule="nonzero"/></clipPath><clipPath id="d6cd5d53f2"><path d="M 397 313 L 400 313 L 400 324.992188 L 397 324.992188 Z M 397 313 " clip-rule="nonzero"/></clipPath><clipPath id="7910035ddd"><path d="M 402 317 L 405 317 L 405 324.992188 L 402 324.992188 Z M 402 317 " clip-rule="nonzero"/></clipPath><clipPath id="6e192f732e"><path d="M 407 313 L 411 313 L 411 324.992188 L 407 324.992188 Z M 407 313 " clip-rule="nonzero"/></clipPath><clipPath id="d97b661d46"><path d="M 413 309 L 416 309 L 416 324.992188 L 413 324.992188 Z M 413 309 " clip-rule="nonzero"/></clipPath><clipPath id="b0986fa1b9"><path d="M 418 304.328125 L 421 304.328125 L 421 324.992188 L 418 324.992188 Z M 418 304.328125 " clip-rule="nonzero"/></clipPath><clipPath id="2d0ced36ff"><path d="M 423 304.328125 L 426 304.328125 L 426 324.992188 L 423 324.992188 Z M 423 304.328125 " clip-rule="nonzero"/></clipPath><clipPath id="5968785bdf"><path d="M 428 305 L 432 305 L 432 324.992188 L 428 324.992188 Z M 428 305 " clip-rule="nonzero"/></clipPath><clipPath id="125967bce2"><path d="M 434 319 L 437 319 L 437 324.992188 L 434 324.992188 Z M 434 319 " clip-rule="nonzero"/></clipPath><clipPath id="9674eecc74"><path d="M 439 316 L 442 316 L 442 324.992188 L 439 324.992188 Z M 439 316 " clip-rule="nonzero"/></clipPath><clipPath id="3185452e0b"><path d="M 444 304.328125 L 447 304.328125 L 447 324.992188 L 444 324.992188 Z M 444 304.328125 " clip-rule="nonzero"/></clipPath><clipPath id="5b09fbfb3e"><path d="M 449 304.328125 L 453 304.328125 L 453 324.992188 L 449 324.992188 Z M 449 304.328125 " clip-rule="nonzero"/></clipPath><clipPath id="a920292e04"><path d="M 455 304.328125 L 458 304.328125 L 458 324.992188 L 455 324.992188 Z M 455 304.328125 " clip-rule="nonzero"/></clipPath><clipPath id="a7f60d6345"><path d="M 460 309 L 463 309 L 463 324.992188 L 460 324.992188 Z M 460 309 " clip-rule="nonzero"/></clipPath><clipPath id="d86e7aa6a0"><path d="M 465 314 L 468 314 L 468 324.992188 L 465 324.992188 Z M 465 314 " clip-rule="nonzero"/></clipPath><clipPath id="4a6454ca47"><path d="M 470 306 L 473 306 L 473 324.992188 L 470 324.992188 Z M 470 306 " clip-rule="nonzero"/></clipPath><clipPath id="ea402a83a4"><path d="M 476 304.328125 L 479 304.328125 L 479 324.992188 L 476 324.992188 Z M 476 304.328125 " clip-rule="nonzero"/></clipPath><clipPath id="1f4dabdb66"><path d="M 481 304.328125 L 484 304.328125 L 484 324.992188 L 481 324.992188 Z M 481 304.328125 " clip-rule="nonzero"/></clipPath><clipPath id="dfacf06a31"><path d="M 486 310 L 489 310 L 489 324.992188 L 486 324.992188 Z M 486 310 " clip-rule="nonzero"/></clipPath><clipPath id="8d4c7fceff"><path d="M 491 313 L 494 313 L 494 324.992188 L 491 324.992188 Z M 491 313 " clip-rule="nonzero"/></clipPath><clipPath id="37977536af"><path d="M 497 306 L 500 306 L 500 324.992188 L 497 324.992188 Z M 497 306 " clip-rule="nonzero"/></clipPath><clipPath id="bdb87148ce"><path d="M 502 313 L 505 313 L 505 324.992188 L 502 324.992188 Z M 502 313 " clip-rule="nonzero"/></clipPath></defs><g clip-path="url(#8bfe74f4b4)"><path stroke-linecap="butt" transform="matrix(2.347778, 0, 0, 2.347778, -5.317949, 94.368739)" fill="none" stroke-linejoin="miter" d="M 5.907173 83.000038 L 5.907173 38.548094 L 21.247478 38.548094 L 21.247478 43.225057 L 21.415523 43.225057 C 25.406997 39.231919 29.653034 37.237014 34.151969 37.237014 C 37.383083 37.237014 40.41454 37.907528 43.249668 39.246893 C 46.084796 40.572948 48.222789 42.617767 49.660318 45.383015 C 54.174228 39.952348 59.090779 37.237014 64.408308 37.237014 C 69.131857 37.237014 73.20153 38.569724 76.615663 41.235143 C 80.028132 43.887252 81.735199 48.048435 81.735199 53.718691 L 81.735199 83.000038 L 66.396558 83.000038 L 66.396558 57.864899 C 66.396558 55.495637 65.741017 53.520698 64.428273 51.941744 C 63.130504 50.347817 61.183849 49.550853 58.589973 49.550853 C 56.332186 49.550853 54.611809 50.228023 53.427178 51.580698 C 52.242547 52.935037 51.593663 54.572224 51.480524 56.490594 L 51.480524 83.000038 L 36.141883 83.000038 L 36.141883 57.864899 C 36.141883 55.495637 35.492998 53.520698 34.195228 51.941744 C 32.897458 50.347817 30.950803 49.550853 28.355264 49.550853 C 25.986002 49.550853 24.209056 50.291247 23.024425 51.772036 C 21.839794 53.239514 21.247478 54.981521 21.247478 56.998055 L 21.247478 83.000038 Z M 95.769415 38.548094 L 95.769415 59.685104 C 95.769415 64.070901 96.43161 67.195531 97.757664 69.057332 C 99.083719 70.905822 101.333187 71.829235 104.507731 71.829235 C 107.695586 71.829235 109.951709 70.905822 111.277764 69.057332 C 112.603818 67.195531 113.266014 64.070901 113.266014 59.685104 L 113.266014 38.548094 L 128.604655 38.548094 L 128.604655 63.408705 C 128.604655 70.812649 126.67963 76.145152 122.829579 79.402887 C 118.992839 82.662285 112.885002 84.291153 104.507731 84.291153 C 96.142107 84.291153 90.035934 82.662285 86.18422 79.402887 C 82.349144 76.145152 80.430774 70.812649 80.430774 63.408705 L 80.430774 38.548094 Z M 147.493861 37.237014 C 150.032831 37.237014 152.543517 37.526516 155.025917 38.103858 C 157.523292 38.682863 159.376774 39.260204 160.589689 39.839209 L 162.409895 40.706053 L 157.375213 50.757113 C 153.904511 48.908623 150.611836 47.98521 147.493861 47.98521 C 145.75851 47.98521 144.532284 48.174884 143.813519 48.555896 C 143.09309 48.921934 142.733708 49.627388 142.733708 50.672259 C 142.733708 50.911848 142.761992 51.144781 142.818562 51.369395 C 142.875131 51.595672 142.98827 51.813631 143.156315 52.026599 C 143.340997 52.222928 143.502387 52.392636 143.64381 52.53406 C 143.785234 52.67382 144.024822 52.836873 144.362575 53.019892 C 144.715302 53.1896 144.989831 53.316049 145.187824 53.400903 C 145.399127 53.485758 145.730225 53.618862 146.182781 53.803545 C 146.646983 53.971589 146.993055 54.099703 147.219333 54.184557 C 147.458921 54.267747 147.853243 54.402516 148.403964 54.585534 C 148.954684 54.755243 149.377291 54.868382 149.673449 54.924951 C 151.465369 55.445723 153.022693 56.024728 154.348748 56.658639 C 155.674802 57.294213 157.070737 58.161057 158.538215 59.260833 C 160.019003 60.362274 161.162039 61.751553 161.965658 63.430335 C 162.784251 65.094142 163.193548 66.997538 163.193548 69.142186 C 163.193548 79.241497 156.168953 84.291153 142.119763 84.291153 C 138.946882 84.291153 135.928735 83.803657 133.065323 82.83033 C 130.20191 81.843692 128.135461 80.863709 126.865976 79.890382 L 124.960916 78.324739 L 131.203522 67.829442 C 131.667724 68.238738 132.275014 68.719579 133.022064 69.268635 C 133.770777 69.819356 135.123452 70.57306 137.085081 71.533077 C 139.060021 72.47812 140.765424 72.950641 142.204617 72.950641 C 145.392472 72.950641 146.9864 71.879149 146.9864 69.734501 C 146.9864 68.761174 146.577103 67.99915 145.75851 67.450094 C 144.954891 66.899373 143.580586 66.278773 141.633931 65.588293 C 139.700587 64.896149 138.191513 64.262239 137.105047 63.683234 C 134.326489 62.23073 132.126935 60.595207 130.504723 58.775002 C 128.897485 56.954796 128.092202 54.543939 128.092202 51.539103 C 128.092202 47.040168 129.834209 43.534525 133.318221 41.02384 C 136.817208 38.499844 141.542422 37.237014 147.493861 37.237014 Z M 162.305075 13.752372 C 164.096996 11.960451 166.233324 11.065323 168.715725 11.065323 C 171.2131 11.065323 173.356084 11.960451 175.148005 13.752372 C 176.939925 15.544292 177.835054 17.687276 177.835054 20.184651 C 177.835054 22.667052 176.939925 24.803381 175.148005 26.595301 C 173.356084 28.372248 171.2131 29.260721 168.715725 29.260721 C 166.233324 29.260721 164.096996 28.372248 162.305075 26.595301 C 160.514818 24.803381 159.618026 22.667052 159.618026 20.184651 C 159.618026 17.687276 160.514818 15.544292 162.305075 13.752372 Z M 160.845916 38.548094 L 160.845916 83.000038 L 176.184557 83.000038 L 176.184557 38.548094 Z M 200.702424 49.803752 C 197.81239 49.803752 195.32167 50.876908 193.235256 53.019892 C 191.160488 55.149565 190.123936 57.71682 190.123936 60.721656 C 190.123936 63.781398 191.160488 66.385257 193.235256 68.528241 C 195.32167 70.672889 197.81239 71.744381 200.702424 71.744381 C 202.085048 71.744381 203.397792 71.568017 204.638992 71.21529 C 205.880192 70.862563 206.788631 70.516491 207.367636 70.178738 L 208.149626 69.649647 L 213.355679 80.312989 C 212.946383 80.609147 212.382352 80.975185 211.661923 81.412766 C 210.943159 81.837037 209.292662 82.421033 206.712096 83.169747 C 204.144841 83.916796 201.387912 84.291153 198.439645 84.291153 C 191.922512 84.291153 186.189031 81.998426 181.239204 77.414637 C 176.301023 72.815873 173.833597 67.315325 173.833597 60.91133 C 173.833597 54.437456 176.301023 48.873683 181.239204 44.21835 C 186.189031 39.564681 191.922512 37.237014 198.439645 37.237014 C 201.387912 37.237014 204.101582 37.589741 206.583983 38.295196 C 209.081358 38.985676 210.844994 39.67782 211.874891 40.3683 L 213.355679 41.404852 L 208.149626 51.898485 C 206.24623 50.502551 203.763829 49.803752 200.702424 49.803752 Z M 200.702424 49.803752 " stroke="#ffd700" stroke-width="6.500002" stroke-opacity="1" stroke-miterlimit="4"/></g><g fill="#d10000" fill-opacity="1"><g transform="translate(-3.667167, 289.234285)"><g><path d="M 12.203125 0 L 12.203125 -104.375 L 48.21875 -104.375 L 48.21875 -93.390625 L 48.625 -93.390625 C 57.976562 -102.742188 67.945312 -107.421875 78.53125 -107.421875 C 86.125 -107.421875 93.242188 -105.859375 99.890625 -102.734375 C 106.535156 -99.617188 111.554688 -94.804688 114.953125 -88.296875 C 125.535156 -101.046875 137.0625 -107.421875 149.53125 -107.421875 C 160.65625 -107.421875 170.21875 -104.300781 178.21875 -98.0625 C 186.226562 -91.820312 190.234375 -82.054688 190.234375 -68.765625 L 190.234375 0 L 154.21875 0 L 154.21875 -59 C 154.21875 -64.5625 152.691406 -69.207031 149.640625 -72.9375 C 146.585938 -76.664062 142.007812 -78.53125 135.90625 -78.53125 C 130.613281 -78.53125 126.578125 -76.9375 123.796875 -73.75 C 121.015625 -70.5625 119.488281 -66.726562 119.21875 -62.25 L 119.21875 0 L 83.21875 0 L 83.21875 -59 C 83.21875 -64.5625 81.691406 -69.207031 78.640625 -72.9375 C 75.585938 -76.664062 71.007812 -78.53125 64.90625 -78.53125 C 59.34375 -78.53125 55.171875 -76.800781 52.390625 -73.34375 C 49.609375 -69.882812 48.21875 -65.78125 48.21875 -61.03125 L 48.21875 0 Z M 12.203125 0 "/></g></g></g><g fill="#d10000" fill-opacity="1"><g transform="translate(173.331359, 289.234285)"><g><path d="M 46.1875 -104.375 L 46.1875 -54.734375 C 46.1875 -44.421875 47.742188 -37.09375 50.859375 -32.75 C 53.984375 -28.414062 59.273438 -26.25 66.734375 -26.25 C 74.191406 -26.25 79.476562 -28.414062 82.59375 -32.75 C 85.71875 -37.09375 87.28125 -44.421875 87.28125 -54.734375 L 87.28125 -104.375 L 123.296875 -104.375 L 123.296875 -45.984375 C 123.296875 -28.617188 118.785156 -16.101562 109.765625 -8.4375 C 100.742188 -0.78125 86.398438 3.046875 66.734375 3.046875 C 47.066406 3.046875 32.722656 -0.78125 23.703125 -8.4375 C 14.679688 -16.101562 10.171875 -28.617188 10.171875 -45.984375 L 10.171875 -104.375 Z M 46.1875 -104.375 "/></g></g></g><g fill="#d10000" fill-opacity="1"><g transform="translate(283.394901, 289.234285)"><g><path d="M 57.578125 -107.421875 C 63.546875 -107.421875 69.445312 -106.742188 75.28125 -105.390625 C 81.113281 -104.035156 85.453125 -102.675781 88.296875 -101.3125 L 92.578125 -99.28125 L 80.765625 -75.6875 C 72.628906 -80.019531 64.898438 -82.1875 57.578125 -82.1875 C 53.503906 -82.1875 50.617188 -81.742188 48.921875 -80.859375 C 47.234375 -79.984375 46.390625 -78.328125 46.390625 -75.890625 C 46.390625 -75.347656 46.457031 -74.804688 46.59375 -74.265625 C 46.726562 -73.722656 47 -73.210938 47.40625 -72.734375 C 47.8125 -72.253906 48.179688 -71.84375 48.515625 -71.5 C 48.859375 -71.164062 49.4375 -70.796875 50.25 -70.390625 C 51.0625 -69.984375 51.703125 -69.675781 52.171875 -69.46875 C 52.648438 -69.269531 53.429688 -68.96875 54.515625 -68.5625 C 55.609375 -68.15625 56.425781 -67.847656 56.96875 -67.640625 C 57.507812 -67.441406 58.421875 -67.140625 59.703125 -66.734375 C 60.992188 -66.328125 61.976562 -66.054688 62.65625 -65.921875 C 66.863281 -64.703125 70.523438 -63.34375 73.640625 -61.84375 C 76.765625 -60.351562 80.054688 -58.316406 83.515625 -55.734375 C 86.972656 -53.160156 89.648438 -49.90625 91.546875 -45.96875 C 93.453125 -42.039062 94.40625 -37.566406 94.40625 -32.546875 C 94.40625 -8.816406 77.925781 3.046875 44.96875 3.046875 C 37.5 3.046875 30.40625 1.894531 23.6875 -0.40625 C 16.976562 -2.707031 12.132812 -5.015625 9.15625 -7.328125 L 4.671875 -10.984375 L 19.328125 -35.609375 C 20.410156 -34.660156 21.832031 -33.539062 23.59375 -32.25 C 25.363281 -30.957031 28.550781 -29.191406 33.15625 -26.953125 C 37.769531 -24.710938 41.773438 -23.59375 45.171875 -23.59375 C 52.628906 -23.59375 56.359375 -26.101562 56.359375 -31.125 C 56.359375 -33.4375 55.40625 -35.234375 53.5 -36.515625 C 51.601562 -37.804688 48.382812 -39.265625 43.84375 -40.890625 C 39.300781 -42.515625 35.738281 -44.007812 33.15625 -45.375 C 26.644531 -48.757812 21.488281 -52.585938 17.6875 -56.859375 C 13.894531 -61.140625 12 -66.804688 12 -73.859375 C 12 -84.429688 16.101562 -92.664062 24.3125 -98.5625 C 32.519531 -104.46875 43.609375 -107.421875 57.578125 -107.421875 Z M 57.578125 -107.421875 "/></g></g></g><g fill="#d10000" fill-opacity="1"><g transform="translate(360.092672, 289.234285)"><g><path d="M 15.65625 -162.546875 C 19.863281 -166.753906 24.882812 -168.859375 30.71875 -168.859375 C 36.550781 -168.859375 41.566406 -166.753906 45.765625 -162.546875 C 49.972656 -158.347656 52.078125 -153.332031 52.078125 -147.5 C 52.078125 -141.664062 49.972656 -136.644531 45.765625 -132.4375 C 41.566406 -128.238281 36.550781 -126.140625 30.71875 -126.140625 C 24.882812 -126.140625 19.863281 -128.238281 15.65625 -132.4375 C 11.457031 -136.644531 9.359375 -141.664062 9.359375 -147.5 C 9.359375 -153.332031 11.457031 -158.347656 15.65625 -162.546875 Z M 12.203125 -104.375 L 12.203125 0 L 48.21875 0 L 48.21875 -104.375 Z M 12.203125 -104.375 "/></g></g></g><g fill="#d10000" fill-opacity="1"><g transform="translate(398.134974, 289.234285)"><g><path d="M 67.75 -77.921875 C 60.96875 -77.921875 55.132812 -75.410156 50.25 -70.390625 C 45.363281 -65.367188 42.921875 -59.332031 42.921875 -52.28125 C 42.921875 -45.09375 45.363281 -38.988281 50.25 -33.96875 C 55.132812 -28.957031 60.96875 -26.453125 67.75 -26.453125 C 71 -26.453125 74.082031 -26.859375 77 -27.671875 C 79.914062 -28.484375 82.054688 -29.296875 83.421875 -30.109375 L 85.25 -31.328125 L 97.453125 -6.3125 C 96.503906 -5.632812 95.179688 -4.785156 93.484375 -3.765625 C 91.785156 -2.742188 87.921875 -1.351562 81.890625 0.40625 C 75.859375 2.164062 69.378906 3.046875 62.453125 3.046875 C 47.128906 3.046875 33.664062 -2.34375 22.0625 -13.125 C 10.46875 -23.90625 4.671875 -36.820312 4.671875 -51.875 C 4.671875 -67.070312 10.46875 -80.128906 22.0625 -91.046875 C 33.664062 -101.960938 47.128906 -107.421875 62.453125 -107.421875 C 69.378906 -107.421875 75.753906 -106.609375 81.578125 -104.984375 C 87.410156 -103.359375 91.550781 -101.726562 94 -100.09375 L 97.453125 -97.65625 L 85.25 -73.046875 C 80.769531 -76.296875 74.9375 -77.921875 67.75 -77.921875 Z M 67.75 -77.921875 "/></g></g></g><g clip-path="url(#e6f7f3cff1)"><path stroke-linecap="butt" transform="matrix(1.489566, 0, 0, 1.489566, -3.777024, -16.365637)" fill="none" stroke-linejoin="miter" d="M 7.864389 17.055106 L 37.980131 17.055106 C 52.416491 17.055106 64.762792 21.987857 75.01641 31.853358 C 85.270028 41.716238 90.396837 54.083517 90.396837 68.949952 C 90.396837 83.900304 85.291007 96.320032 75.079348 106.203891 C 64.865066 116.06677 52.500408 120.999521 37.980131 120.999521 L 7.864389 120.999521 Z M 31.549985 99.836682 L 35.210868 99.836682 C 43.84646 99.836682 50.911229 96.923186 56.405175 91.098816 C 61.922723 85.25609 64.723455 77.913345 64.80475 69.073205 C 64.80475 60.256667 62.056466 52.913923 56.559897 47.047594 C 51.063328 41.162909 43.948733 38.220567 35.210868 38.220567 L 31.549985 38.220567 Z M 79.30667 93.653042 C 79.30667 90.555978 80.012098 87.582166 81.428199 84.731608 C 82.862657 81.86007 84.884534 79.256019 87.488586 76.919452 C 90.092638 74.559284 92.738648 72.498071 95.423994 70.735813 C 98.111963 68.970931 101.177559 67.166714 104.623404 65.320539 C 97.65042 56.585295 94.162616 48.89377 94.162616 42.251209 C 94.162616 34.027335 97.034153 27.452956 102.777229 22.530695 C 108.538661 17.611056 116.712709 15.148615 127.294128 15.148615 C 137.033754 15.148615 144.612515 17.886409 150.027789 23.361999 C 155.46142 28.816609 158.178235 35.113012 158.178235 42.251209 C 158.178235 45.183062 157.459695 48.065089 156.025238 50.894668 C 154.609137 53.703268 152.907194 56.092282 150.919408 58.061711 C 148.949979 60.03114 146.951704 61.77242 144.919337 63.290794 C 142.910572 64.809169 141.198139 65.947294 139.782038 66.70517 L 137.629041 67.811827 L 151.504205 82.180004 C 154.517353 80.845198 159.594336 76.476265 166.72991 69.073205 L 181.373441 83.43876 C 176.655727 88.833055 171.733466 93.582237 166.606657 97.683685 L 189.033497 120.999521 L 159.193108 120.999521 L 148.858195 110.294848 C 145.658856 112.55012 143.301311 114.170768 141.782936 115.154172 C 140.285541 116.119218 138.040759 117.359617 135.045968 118.877992 C 132.072157 120.375387 129.006561 121.411239 125.849181 121.985546 C 122.710157 122.578211 119.243333 122.877165 115.45133 122.877165 C 112.189054 122.877165 108.960868 122.59919 105.76153 122.045862 C 102.562191 121.513513 99.341873 120.558956 96.100576 119.184814 C 92.88288 117.789692 90.050679 116.048413 87.611839 113.955731 C 85.170376 111.842069 83.172101 109.043959 81.611768 105.558778 C 80.075036 102.070975 79.30667 98.10327 79.30667 93.653042 Z M 127.294128 31.913674 C 124.278358 31.913674 122.012597 32.88921 120.494222 34.837659 C 118.97847 36.76513 118.217971 39.235439 118.217971 42.251209 C 118.217971 44.013468 118.844727 45.972407 120.095616 48.125404 C 121.367484 50.257423 122.639352 51.951499 123.911221 53.202388 L 125.786243 54.985626 C 133.517104 50.781905 137.382534 46.536225 137.382534 42.251209 C 137.382534 35.359519 134.020606 31.913674 127.294128 31.913674 Z M 133.477768 94.544661 L 116.956593 78.272615 C 116.712709 78.374889 116.332459 78.529611 115.818467 78.734159 C 115.328077 78.938707 114.444325 79.44221 113.175079 80.239422 C 111.92419 81.039256 110.835891 81.923008 109.912803 82.885432 C 108.989715 83.850479 108.129565 85.132836 107.32973 86.732506 C 106.529895 88.332175 106.128667 90.013139 106.128667 91.775398 C 106.128667 94.544661 107.308751 96.687169 109.666296 98.205544 C 112.026464 99.702939 114.753769 100.450326 117.850834 100.450326 C 120.373591 100.450326 122.935685 99.970425 125.539736 99.005379 C 128.143788 98.040332 130.123707 97.056929 131.47687 96.052546 Z M 208.827438 15.148615 C 214.44726 15.148615 219.943828 15.969429 225.317144 17.611056 C 230.711439 19.250062 234.710612 20.87071 237.314664 22.47038 L 241.0988 24.993137 L 231.500784 43.879725 C 230.740285 43.389334 229.686077 42.741599 228.330291 41.941765 C 226.998108 41.14193 224.48584 40.077232 220.796111 38.742426 C 217.10376 37.389263 213.657915 36.712682 210.458576 36.712682 C 206.52234 36.712682 203.475102 37.554475 201.322104 39.235439 C 199.190086 40.916403 198.122765 43.182164 198.122765 46.032722 C 198.122765 47.469802 198.626268 48.791496 199.63065 50.003049 C 200.635033 51.21198 202.357955 52.515317 204.799418 53.907816 C 207.238258 55.281958 209.383388 56.391237 211.226942 57.230408 C 213.073117 58.072201 215.923676 59.333579 219.778617 61.014543 C 226.505095 63.886081 232.23768 67.78298 236.976373 72.705242 C 241.733423 77.606523 244.111947 83.163408 244.111947 89.375894 C 244.111947 95.344496 243.03676 100.5526 240.88114 105.002827 C 238.749121 109.453055 235.806779 112.940859 232.054112 115.463616 C 228.322424 117.986373 224.189508 119.850906 219.655363 121.062459 C 215.123841 122.271389 210.21207 122.877165 204.922671 122.877165 C 200.388526 122.877165 195.938299 122.415621 191.571988 121.492534 C 187.203055 120.569446 183.542173 119.420831 180.58934 118.046689 C 177.657488 116.651567 175.011477 115.287915 172.653932 113.955731 C 170.314743 112.602568 168.591821 111.464443 167.485164 110.541355 L 165.854026 109.156723 L 177.696824 89.252641 C 178.701206 90.094434 180.085838 91.172244 181.850719 92.483448 C 183.612978 93.776296 186.741511 95.520197 191.233698 97.712531 C 195.744241 99.886508 199.722435 100.974808 203.16828 100.974808 C 213.154412 100.974808 218.150101 97.570921 218.150101 90.760526 C 218.150101 89.326068 217.790831 88.001752 217.072291 86.792821 C 216.353751 85.583891 215.092372 84.372338 213.288155 83.163408 C 211.483938 81.933498 209.884268 80.957962 208.489147 80.239422 C 207.115005 79.523504 204.849244 78.435205 201.691864 76.979768 C 198.55284 75.503352 196.226764 74.386206 194.708389 73.625707 C 188.411986 70.510285 183.542173 66.623876 180.096328 61.9691 C 176.650483 57.311702 174.930182 52.297657 174.930182 46.926964 C 174.930182 37.593811 178.373405 29.965224 185.265095 24.03858 C 192.156785 18.111937 200.0109 15.148615 208.827438 15.148615 Z M 208.827438 15.148615 " stroke="#ffd700" stroke-width="9.45" stroke-opacity="1" stroke-miterlimit="4"/></g><g fill="#d10000" fill-opacity="1"><g transform="translate(-3.334809, 163.871808)"><g><path d="M 11.265625 -154.84375 L 56.125 -154.84375 C 77.644531 -154.84375 96.035156 -147.488281 111.296875 -132.78125 C 126.566406 -118.082031 134.203125 -99.660156 134.203125 -77.515625 C 134.203125 -55.242188 126.597656 -36.753906 111.390625 -22.046875 C 96.191406 -7.347656 77.769531 0 56.125 0 L 11.265625 0 Z M 46.546875 -31.53125 L 51.984375 -31.53125 C 64.878906 -31.53125 75.421875 -35.878906 83.609375 -44.578125 C 91.804688 -53.273438 95.96875 -64.191406 96.09375 -77.328125 C 96.09375 -90.460938 91.992188 -101.410156 83.796875 -110.171875 C 75.609375 -118.929688 65.003906 -123.3125 51.984375 -123.3125 L 46.546875 -123.3125 Z M 46.546875 -31.53125 "/></g></g></g><g fill="#d10000" fill-opacity="1"><g transform="translate(108.900904, 163.871808)"><g><path d="M 5.4375 -40.734375 C 5.4375 -45.359375 6.5 -49.796875 8.625 -54.046875 C 10.757812 -58.304688 13.765625 -62.1875 17.640625 -65.6875 C 21.515625 -69.195312 25.453125 -72.265625 29.453125 -74.890625 C 33.460938 -77.515625 38.035156 -80.203125 43.171875 -82.953125 C 32.785156 -95.972656 27.59375 -107.421875 27.59375 -117.296875 C 27.59375 -129.566406 31.875 -139.359375 40.4375 -146.671875 C 49.007812 -153.992188 61.179688 -157.65625 76.953125 -157.65625 C 91.460938 -157.65625 102.753906 -153.585938 110.828125 -145.453125 C 118.898438 -137.328125 122.9375 -127.941406 122.9375 -117.296875 C 122.9375 -112.921875 121.867188 -108.632812 119.734375 -104.4375 C 117.609375 -100.25 115.078125 -96.6875 112.140625 -93.75 C 109.203125 -90.8125 106.226562 -88.210938 103.21875 -85.953125 C 100.21875 -83.703125 97.65625 -82.015625 95.53125 -80.890625 L 92.34375 -79.203125 L 112.984375 -57.8125 C 117.492188 -59.8125 125.066406 -66.316406 135.703125 -77.328125 L 157.46875 -55.9375 C 150.457031 -47.925781 143.140625 -40.851562 135.515625 -34.71875 L 168.921875 0 L 124.4375 0 L 109.046875 -15.953125 C 104.296875 -12.578125 100.789062 -10.164062 98.53125 -8.71875 C 96.28125 -7.28125 92.929688 -5.4375 88.484375 -3.1875 C 84.046875 -0.9375 79.476562 0.625 74.78125 1.5 C 70.09375 2.375 64.9375 2.8125 59.3125 2.8125 C 54.425781 2.8125 49.601562 2.40625 44.84375 1.59375 C 40.09375 0.78125 35.304688 -0.65625 30.484375 -2.71875 C 25.671875 -4.78125 21.453125 -7.375 17.828125 -10.5 C 14.203125 -13.632812 11.226562 -17.796875 8.90625 -22.984375 C 6.59375 -28.179688 5.4375 -34.097656 5.4375 -40.734375 Z M 76.953125 -132.6875 C 72.441406 -132.6875 69.0625 -131.25 66.8125 -128.375 C 64.5625 -125.5 63.4375 -121.804688 63.4375 -117.296875 C 63.4375 -114.671875 64.375 -111.765625 66.25 -108.578125 C 68.125 -105.390625 70.003906 -102.851562 71.890625 -100.96875 L 74.703125 -98.34375 C 86.210938 -104.601562 91.96875 -110.921875 91.96875 -117.296875 C 91.96875 -127.554688 86.960938 -132.6875 76.953125 -132.6875 Z M 86.15625 -39.421875 L 61.5625 -63.625 C 61.1875 -63.5 60.625 -63.28125 59.875 -62.96875 C 59.125 -62.65625 57.804688 -61.90625 55.921875 -60.71875 C 54.046875 -59.53125 52.421875 -58.210938 51.046875 -56.765625 C 49.671875 -55.328125 48.390625 -53.421875 47.203125 -51.046875 C 46.015625 -48.671875 45.421875 -46.171875 45.421875 -43.546875 C 45.421875 -39.410156 47.171875 -36.21875 50.671875 -33.96875 C 54.179688 -31.71875 58.25 -30.59375 62.875 -30.59375 C 66.625 -30.59375 70.4375 -31.3125 74.3125 -32.75 C 78.195312 -34.1875 81.140625 -35.65625 83.140625 -37.15625 Z M 86.15625 -39.421875 "/></g></g></g><g fill="#d10000" fill-opacity="1"><g transform="translate(238.966719, 163.871808)"><g><path d="M 68.3125 -157.65625 C 76.695312 -157.65625 84.894531 -156.4375 92.90625 -154 C 100.914062 -151.5625 106.859375 -149.148438 110.734375 -146.765625 L 116.359375 -143.015625 L 102.109375 -114.859375 C 100.972656 -115.609375 99.40625 -116.578125 97.40625 -117.765625 C 95.40625 -118.960938 91.648438 -120.5625 86.140625 -122.5625 C 80.640625 -124.5625 75.515625 -125.5625 70.765625 -125.5625 C 64.878906 -125.5625 60.335938 -124.3125 57.140625 -121.8125 C 53.953125 -119.3125 52.359375 -115.929688 52.359375 -111.671875 C 52.359375 -109.546875 53.109375 -107.578125 54.609375 -105.765625 C 56.117188 -103.953125 58.6875 -102.007812 62.3125 -99.9375 C 65.9375 -97.875 69.125 -96.21875 71.875 -94.96875 C 74.632812 -93.71875 78.890625 -91.84375 84.640625 -89.34375 C 94.648438 -85.082031 103.191406 -79.289062 110.265625 -71.96875 C 117.335938 -64.65625 120.875 -56.367188 120.875 -47.109375 C 120.875 -38.222656 119.273438 -30.460938 116.078125 -23.828125 C 112.890625 -17.203125 108.507812 -12.007812 102.9375 -8.25 C 97.375 -4.5 91.210938 -1.71875 84.453125 0.09375 C 77.703125 1.90625 70.382812 2.8125 62.5 2.8125 C 55.738281 2.8125 49.101562 2.125 42.59375 0.75 C 36.09375 -0.625 30.648438 -2.34375 26.265625 -4.40625 C 21.890625 -6.46875 17.953125 -8.5 14.453125 -10.5 C 10.953125 -12.507812 8.382812 -14.203125 6.75 -15.578125 L 4.3125 -17.640625 L 21.953125 -47.296875 C 23.460938 -46.046875 25.53125 -44.453125 28.15625 -42.515625 C 30.78125 -40.578125 35.4375 -37.976562 42.125 -34.71875 C 48.820312 -31.46875 54.738281 -29.84375 59.875 -29.84375 C 74.757812 -29.84375 82.203125 -34.910156 82.203125 -45.046875 C 82.203125 -47.171875 81.671875 -49.140625 80.609375 -50.953125 C 79.546875 -52.765625 77.671875 -54.578125 74.984375 -56.390625 C 72.296875 -58.210938 69.914062 -59.65625 67.84375 -60.71875 C 65.78125 -61.78125 62.398438 -63.40625 57.703125 -65.59375 C 53.015625 -67.78125 49.546875 -69.441406 47.296875 -70.578125 C 37.910156 -75.203125 30.648438 -80.984375 25.515625 -87.921875 C 20.390625 -94.867188 17.828125 -102.347656 17.828125 -110.359375 C 17.828125 -124.242188 22.957031 -135.597656 33.21875 -144.421875 C 43.476562 -153.242188 55.175781 -157.65625 68.3125 -157.65625 Z M 68.3125 -157.65625 "/></g></g></g><g fill="#d10000" fill-opacity="1"><g transform="translate(212.06858, 327.769246)"><g><path d="M 9.515625 -14.75 L 9.515625 -11.796875 L 4.4375 -11.796875 L 4.4375 -8.859375 L 9.296875 -8.859375 L 9.296875 -5.921875 L 4.4375 -5.921875 L 4.4375 -2.953125 L 9.515625 -2.953125 L 9.515625 0 L 1.078125 0 L 1.078125 -14.75 Z M 9.515625 -14.75 "/></g></g></g><g fill="#d10000" fill-opacity="1"><g transform="translate(221.363548, 327.769246)"><g><path d="M 6.5 -15.015625 C 7.300781 -15.015625 8.082031 -14.894531 8.84375 -14.65625 C 9.601562 -14.425781 10.171875 -14.203125 10.546875 -13.984375 L 11.078125 -13.625 L 9.71875 -10.9375 C 9.613281 -11.007812 9.460938 -11.101562 9.265625 -11.21875 C 9.078125 -11.332031 8.722656 -11.484375 8.203125 -11.671875 C 7.679688 -11.859375 7.191406 -11.953125 6.734375 -11.953125 C 6.179688 -11.953125 5.75 -11.832031 5.4375 -11.59375 C 5.132812 -11.363281 4.984375 -11.046875 4.984375 -10.640625 C 4.984375 -10.429688 5.054688 -10.238281 5.203125 -10.0625 C 5.347656 -9.894531 5.59375 -9.710938 5.9375 -9.515625 C 6.28125 -9.316406 6.582031 -9.15625 6.84375 -9.03125 C 7.101562 -8.914062 7.507812 -8.742188 8.0625 -8.515625 C 9.007812 -8.109375 9.820312 -7.554688 10.5 -6.859375 C 11.175781 -6.160156 11.515625 -5.367188 11.515625 -4.484375 C 11.515625 -3.640625 11.359375 -2.898438 11.046875 -2.265625 C 10.742188 -1.640625 10.328125 -1.144531 9.796875 -0.78125 C 9.273438 -0.425781 8.691406 -0.164062 8.046875 0 C 7.398438 0.175781 6.703125 0.265625 5.953125 0.265625 C 5.304688 0.265625 4.671875 0.195312 4.046875 0.0625 C 3.429688 -0.0625 2.914062 -0.222656 2.5 -0.421875 C 2.082031 -0.617188 1.707031 -0.8125 1.375 -1 C 1.039062 -1.1875 0.796875 -1.347656 0.640625 -1.484375 L 0.40625 -1.6875 L 2.09375 -4.5 C 2.238281 -4.382812 2.4375 -4.234375 2.6875 -4.046875 C 2.9375 -3.859375 3.378906 -3.609375 4.015625 -3.296875 C 4.648438 -2.992188 5.210938 -2.84375 5.703125 -2.84375 C 7.117188 -2.84375 7.828125 -3.328125 7.828125 -4.296875 C 7.828125 -4.492188 7.773438 -4.675781 7.671875 -4.84375 C 7.578125 -5.019531 7.398438 -5.191406 7.140625 -5.359375 C 6.878906 -5.535156 6.648438 -5.675781 6.453125 -5.78125 C 6.265625 -5.882812 5.945312 -6.039062 5.5 -6.25 C 5.050781 -6.457031 4.71875 -6.613281 4.5 -6.71875 C 3.601562 -7.15625 2.910156 -7.703125 2.421875 -8.359375 C 1.941406 -9.023438 1.703125 -9.742188 1.703125 -10.515625 C 1.703125 -11.835938 2.1875 -12.914062 3.15625 -13.75 C 4.132812 -14.59375 5.25 -15.015625 6.5 -15.015625 Z M 6.5 -15.015625 "/></g></g></g><g fill="#d10000" fill-opacity="1"><g transform="translate(232.303002, 327.769246)"><g><path d="M 0.140625 -11.796875 L 0.140625 -14.75 L 10.515625 -14.75 L 10.515625 -11.796875 L 7 -11.796875 L 7 0 L 3.640625 0 L 3.640625 -11.796875 Z M 0.140625 -11.796875 "/></g></g></g><g fill="#d10000" fill-opacity="1"><g transform="translate(241.883969, 327.769246)"><g/></g></g><g fill="#d10000" fill-opacity="1"><g transform="translate(245.691324, 327.769246)"><g><path d="M 6.484375 -12.171875 C 6.015625 -12.171875 5.5625 -11.9375 5.125 -11.46875 C 4.6875 -11 4.367188 -10.53125 4.171875 -10.0625 L 3.859375 -9.359375 L 1.046875 -10.71875 C 1.085938 -10.84375 1.148438 -11 1.234375 -11.1875 C 1.316406 -11.375 1.507812 -11.710938 1.8125 -12.203125 C 2.125 -12.703125 2.46875 -13.140625 2.84375 -13.515625 C 3.226562 -13.890625 3.742188 -14.234375 4.390625 -14.546875 C 5.035156 -14.859375 5.734375 -15.015625 6.484375 -15.015625 C 7.453125 -15.015625 8.296875 -14.890625 9.015625 -14.640625 C 9.734375 -14.398438 10.289062 -14.097656 10.6875 -13.734375 C 11.082031 -13.367188 11.398438 -12.9375 11.640625 -12.4375 C 11.890625 -11.945312 12.046875 -11.5 12.109375 -11.09375 C 12.171875 -10.695312 12.203125 -10.273438 12.203125 -9.828125 C 12.203125 -9.179688 12.023438 -8.503906 11.671875 -7.796875 C 11.316406 -7.085938 10.882812 -6.457031 10.375 -5.90625 C 9.863281 -5.351562 9.351562 -4.847656 8.84375 -4.390625 C 8.332031 -3.929688 7.898438 -3.578125 7.546875 -3.328125 L 7 -2.953125 L 12.484375 -2.953125 L 12.484375 0 L 0.984375 0 L 0.984375 -0.84375 C 1.179688 -1.007812 1.453125 -1.238281 1.796875 -1.53125 C 2.148438 -1.820312 2.757812 -2.378906 3.625 -3.203125 C 4.5 -4.023438 5.269531 -4.796875 5.9375 -5.515625 C 6.601562 -6.234375 7.207031 -7.003906 7.75 -7.828125 C 8.300781 -8.648438 8.578125 -9.316406 8.578125 -9.828125 C 8.578125 -10.035156 8.554688 -10.238281 8.515625 -10.4375 C 8.472656 -10.644531 8.390625 -10.894531 8.265625 -11.1875 C 8.148438 -11.476562 7.9375 -11.710938 7.625 -11.890625 C 7.320312 -12.078125 6.941406 -12.171875 6.484375 -12.171875 Z M 6.484375 -12.171875 "/></g></g></g><g fill="#d10000" fill-opacity="1"><g transform="translate(258.078637, 327.769246)"><g><path d="M 0.5 -7.359375 C 0.5 -9.796875 1.078125 -11.679688 2.234375 -13.015625 C 3.390625 -14.347656 4.8125 -15.015625 6.5 -15.015625 C 8.195312 -15.015625 9.617188 -14.347656 10.765625 -13.015625 C 11.921875 -11.679688 12.5 -9.796875 12.5 -7.359375 C 12.5 -6.035156 12.335938 -4.875 12.015625 -3.875 C 11.691406 -2.875 11.242188 -2.078125 10.671875 -1.484375 C 10.109375 -0.898438 9.476562 -0.460938 8.78125 -0.171875 C 8.082031 0.117188 7.320312 0.265625 6.5 0.265625 C 5.675781 0.265625 4.914062 0.117188 4.21875 -0.171875 C 3.53125 -0.460938 2.898438 -0.898438 2.328125 -1.484375 C 1.753906 -2.078125 1.304688 -2.875 0.984375 -3.875 C 0.660156 -4.875 0.5 -6.035156 0.5 -7.359375 Z M 3.890625 -7.359375 C 3.890625 -5.796875 4.113281 -4.625 4.5625 -3.84375 C 5.019531 -3.070312 5.664062 -2.6875 6.5 -2.6875 C 7.320312 -2.6875 7.957031 -3.070312 8.40625 -3.84375 C 8.863281 -4.625 9.09375 -5.796875 9.09375 -7.359375 C 9.09375 -8.847656 8.863281 -10.003906 8.40625 -10.828125 C 7.945312 -11.648438 7.3125 -12.0625 6.5 -12.0625 C 5.695312 -12.0625 5.0625 -11.644531 4.59375 -10.8125 C 4.125 -9.988281 3.890625 -8.835938 3.890625 -7.359375 Z M 3.890625 -7.359375 "/></g></g></g><g fill="#d10000" fill-opacity="1"><g transform="translate(270.001209, 327.769246)"><g><path d="M 0.5 -7.359375 C 0.5 -9.796875 1.078125 -11.679688 2.234375 -13.015625 C 3.390625 -14.347656 4.8125 -15.015625 6.5 -15.015625 C 8.195312 -15.015625 9.617188 -14.347656 10.765625 -13.015625 C 11.921875 -11.679688 12.5 -9.796875 12.5 -7.359375 C 12.5 -6.035156 12.335938 -4.875 12.015625 -3.875 C 11.691406 -2.875 11.242188 -2.078125 10.671875 -1.484375 C 10.109375 -0.898438 9.476562 -0.460938 8.78125 -0.171875 C 8.082031 0.117188 7.320312 0.265625 6.5 0.265625 C 5.675781 0.265625 4.914062 0.117188 4.21875 -0.171875 C 3.53125 -0.460938 2.898438 -0.898438 2.328125 -1.484375 C 1.753906 -2.078125 1.304688 -2.875 0.984375 -3.875 C 0.660156 -4.875 0.5 -6.035156 0.5 -7.359375 Z M 3.890625 -7.359375 C 3.890625 -5.796875 4.113281 -4.625 4.5625 -3.84375 C 5.019531 -3.070312 5.664062 -2.6875 6.5 -2.6875 C 7.320312 -2.6875 7.957031 -3.070312 8.40625 -3.84375 C 8.863281 -4.625 9.09375 -5.796875 9.09375 -7.359375 C 9.09375 -8.847656 8.863281 -10.003906 8.40625 -10.828125 C 7.945312 -11.648438 7.3125 -12.0625 6.5 -12.0625 C 5.695312 -12.0625 5.0625 -11.644531 4.59375 -10.8125 C 4.125 -9.988281 3.890625 -8.835938 3.890625 -7.359375 Z M 3.890625 -7.359375 "/></g></g></g><g fill="#d10000" fill-opacity="1"><g transform="translate(281.92378, 327.769246)"><g><path d="M 9.953125 -6.0625 L 11.671875 -6.0625 L 11.671875 -3.109375 L 9.953125 -3.109375 L 9.953125 0 L 6.8125 0 L 6.8125 -3.109375 L -0.453125 -3.109375 L -0.453125 -4.109375 L 6.625 -14.75 L 9.953125 -14.75 Z M 6.8125 -10.265625 L 6.78125 -10.265625 L 4.140625 -6.0625 L 6.8125 -6.0625 Z M 6.8125 -10.265625 "/></g></g></g><path stroke-linecap="butt" transform="matrix(1.489566, 0, 0, 1.489566, 0.922671, 326.981488)" fill="none" stroke-linejoin="miter" d="M -0.000534246 2.501094 L 138.619991 2.501094 " stroke="#d10000" stroke-width="5" stroke-opacity="1" stroke-miterlimit="4"/><g clip-path="url(#5a2a89b023)"><path fill="#d10000" d="M 1.015625 317.675781 L 3.070312 317.675781 L 3.070312 325.417969 L 1.015625 325.417969 Z M 1.015625 317.675781 " fill-opacity="1" fill-rule="nonzero"/></g><g clip-path="url(#ad515c3658)"><path fill="#d10000" d="M 6.261719 313.652344 L 8.3125 313.652344 L 8.3125 325.417969 L 6.261719 325.417969 Z M 6.261719 313.652344 " fill-opacity="1" fill-rule="nonzero"/></g><g clip-path="url(#f678d2922f)"><path fill="#d10000" d="M 11.507812 309.855469 L 13.558594 309.855469 L 13.558594 325.417969 L 11.507812 325.417969 Z M 11.507812 309.855469 " fill-opacity="1" fill-rule="nonzero"/></g><g clip-path="url(#88ec6a5c95)"><path fill="#d10000" d="M 16.753906 297.109375 L 18.804688 297.109375 L 18.804688 325.417969 L 16.753906 325.417969 Z M 16.753906 297.109375 " fill-opacity="1" fill-rule="nonzero"/></g><g clip-path="url(#46d2da7afd)"><path fill="#d10000" d="M 21.996094 301.253906 L 24.050781 301.253906 L 24.050781 325.417969 L 21.996094 325.417969 Z M 21.996094 301.253906 " fill-opacity="1" fill-rule="nonzero"/></g><g clip-path="url(#75c0193526)"><path fill="#d10000" d="M 27.242188 306.390625 L 29.296875 306.390625 L 29.296875 325.417969 L 27.242188 325.417969 Z M 27.242188 306.390625 " fill-opacity="1" fill-rule="nonzero"/></g><g clip-path="url(#0e17047db8)"><path fill="#d10000" d="M 32.492188 319.464844 L 34.542969 319.464844 L 34.542969 325.417969 L 32.492188 325.417969 Z M 32.492188 319.464844 " fill-opacity="1" fill-rule="nonzero"/></g><g clip-path="url(#9bbb571ca6)"><path fill="#d10000" d="M 37.734375 316.558594 L 39.789062 316.558594 L 39.789062 325.417969 L 37.734375 325.417969 Z M 37.734375 316.558594 " fill-opacity="1" fill-rule="nonzero"/></g><g clip-path="url(#986885642f)"><path fill="#d10000" d="M 42.980469 301.585938 L 45.035156 301.585938 L 45.035156 325.417969 L 42.980469 325.417969 Z M 42.980469 301.585938 " fill-opacity="1" fill-rule="nonzero"/></g><g clip-path="url(#33880c3761)"><path fill="#d10000" d="M 48.226562 305.050781 L 50.277344 305.050781 L 50.277344 325.417969 L 48.226562 325.417969 Z M 48.226562 305.050781 " fill-opacity="1" fill-rule="nonzero"/></g><g clip-path="url(#a64d50f516)"><path fill="#d10000" d="M 53.472656 300.589844 L 55.523438 300.589844 L 55.523438 325.417969 L 53.472656 325.417969 Z M 53.472656 300.589844 " fill-opacity="1" fill-rule="nonzero"/></g><g clip-path="url(#c0eb94a6f1)"><path fill="#d10000" d="M 58.71875 310.195312 L 60.769531 310.195312 L 60.769531 325.417969 L 58.71875 325.417969 Z M 58.71875 310.195312 " fill-opacity="1" fill-rule="nonzero"/></g><g clip-path="url(#5710a15bc1)"><path fill="#d10000" d="M 63.964844 314.605469 L 66.015625 314.605469 L 66.015625 325.417969 L 63.964844 325.417969 Z M 63.964844 314.605469 " fill-opacity="1" fill-rule="nonzero"/></g><g clip-path="url(#cc2ad7508f)"><path fill="#d10000" d="M 69.210938 306.730469 L 71.261719 306.730469 L 71.261719 325.417969 L 69.210938 325.417969 Z M 69.210938 306.730469 " fill-opacity="1" fill-rule="nonzero"/></g><g clip-path="url(#cac8227650)"><path fill="#d10000" d="M 74.457031 301.535156 L 76.507812 301.535156 L 76.507812 325.417969 L 74.457031 325.417969 Z M 74.457031 301.535156 " fill-opacity="1" fill-rule="nonzero"/></g><g clip-path="url(#21c04a19cf)"><path fill="#d10000" d="M 79.703125 297.109375 L 81.753906 297.109375 L 81.753906 325.417969 L 79.703125 325.417969 Z M 79.703125 297.109375 " fill-opacity="1" fill-rule="nonzero"/></g><g clip-path="url(#e5aae4c18f)"><path fill="#d10000" d="M 84.945312 310.667969 L 87 310.667969 L 87 325.417969 L 84.945312 325.417969 Z M 84.945312 310.667969 " fill-opacity="1" fill-rule="nonzero"/></g><g clip-path="url(#b5c8cc8729)"><path fill="#d10000" d="M 90.191406 313.972656 L 92.246094 313.972656 L 92.246094 325.417969 L 90.191406 325.417969 Z M 90.191406 313.972656 " fill-opacity="1" fill-rule="nonzero"/></g><g clip-path="url(#8f747c3274)"><path fill="#d10000" d="M 95.4375 318.070312 L 97.488281 318.070312 L 97.488281 325.417969 L 95.4375 325.417969 Z M 95.4375 318.070312 " fill-opacity="1" fill-rule="nonzero"/></g><g clip-path="url(#a88ca6e710)"><path fill="#d10000" d="M 100.683594 313.972656 L 102.738281 313.972656 L 102.738281 325.417969 L 100.683594 325.417969 Z M 100.683594 313.972656 " fill-opacity="1" fill-rule="nonzero"/></g><g clip-path="url(#3736096909)"><path fill="#d10000" d="M 105.574219 317.675781 L 107.628906 317.675781 L 107.628906 325.417969 L 105.574219 325.417969 Z M 105.574219 317.675781 " fill-opacity="1" fill-rule="nonzero"/></g><g clip-path="url(#2419369802)"><path fill="#d10000" d="M 110.824219 313.652344 L 112.875 313.652344 L 112.875 325.417969 L 110.824219 325.417969 Z M 110.824219 313.652344 " fill-opacity="1" fill-rule="nonzero"/></g><g clip-path="url(#2a1b830cb2)"><path fill="#d10000" d="M 116.070312 309.855469 L 118.121094 309.855469 L 118.121094 325.417969 L 116.070312 325.417969 Z M 116.070312 309.855469 " fill-opacity="1" fill-rule="nonzero"/></g><g clip-path="url(#abf41e10d3)"><path fill="#d10000" d="M 121.3125 297.109375 L 123.367188 297.109375 L 123.367188 325.417969 L 121.3125 325.417969 Z M 121.3125 297.109375 " fill-opacity="1" fill-rule="nonzero"/></g><g clip-path="url(#2db1d9828e)"><path fill="#d10000" d="M 126.558594 301.253906 L 128.613281 301.253906 L 128.613281 325.417969 L 126.558594 325.417969 Z M 126.558594 301.253906 " fill-opacity="1" fill-rule="nonzero"/></g><g clip-path="url(#883079562d)"><path fill="#d10000" d="M 131.804688 306.390625 L 133.855469 306.390625 L 133.855469 325.417969 L 131.804688 325.417969 Z M 131.804688 306.390625 " fill-opacity="1" fill-rule="nonzero"/></g><g clip-path="url(#d47086b3ab)"><path fill="#d10000" d="M 137.050781 319.464844 L 139.101562 319.464844 L 139.101562 325.417969 L 137.050781 325.417969 Z M 137.050781 319.464844 " fill-opacity="1" fill-rule="nonzero"/></g><g clip-path="url(#fde2b4b38c)"><path fill="#d10000" d="M 142.296875 316.558594 L 144.347656 316.558594 L 144.347656 325.417969 L 142.296875 325.417969 Z M 142.296875 316.558594 " fill-opacity="1" fill-rule="nonzero"/></g><g clip-path="url(#d0a78c2b0e)"><path fill="#d10000" d="M 147.542969 301.585938 L 149.59375 301.585938 L 149.59375 325.417969 L 147.542969 325.417969 Z M 147.542969 301.585938 " fill-opacity="1" fill-rule="nonzero"/></g><g clip-path="url(#52c0005255)"><path fill="#d10000" d="M 152.789062 305.050781 L 154.839844 305.050781 L 154.839844 325.417969 L 152.789062 325.417969 Z M 152.789062 305.050781 " fill-opacity="1" fill-rule="nonzero"/></g><g clip-path="url(#9cd8c3fc01)"><path fill="#d10000" d="M 158.035156 300.589844 L 160.085938 300.589844 L 160.085938 325.417969 L 158.035156 325.417969 Z M 158.035156 300.589844 " fill-opacity="1" fill-rule="nonzero"/></g><g clip-path="url(#f6d4d4281a)"><path fill="#d10000" d="M 163.277344 310.195312 L 165.332031 310.195312 L 165.332031 325.417969 L 163.277344 325.417969 Z M 163.277344 310.195312 " fill-opacity="1" fill-rule="nonzero"/></g><g clip-path="url(#3c176b8d01)"><path fill="#d10000" d="M 168.523438 314.605469 L 170.578125 314.605469 L 170.578125 325.417969 L 168.523438 325.417969 Z M 168.523438 314.605469 " fill-opacity="1" fill-rule="nonzero"/></g><g clip-path="url(#646f760f92)"><path fill="#d10000" d="M 173.769531 306.730469 L 175.824219 306.730469 L 175.824219 325.417969 L 173.769531 325.417969 Z M 173.769531 306.730469 " fill-opacity="1" fill-rule="nonzero"/></g><g clip-path="url(#a03a57c726)"><path fill="#d10000" d="M 179.015625 301.535156 L 181.070312 301.535156 L 181.070312 325.417969 L 179.015625 325.417969 Z M 179.015625 301.535156 " fill-opacity="1" fill-rule="nonzero"/></g><g clip-path="url(#960bab58df)"><path fill="#d10000" d="M 184.261719 297.109375 L 186.316406 297.109375 L 186.316406 325.417969 L 184.261719 325.417969 Z M 184.261719 297.109375 " fill-opacity="1" fill-rule="nonzero"/></g><g clip-path="url(#4117cdbf7d)"><path fill="#d10000" d="M 189.507812 310.667969 L 191.5625 310.667969 L 191.5625 325.417969 L 189.507812 325.417969 Z M 189.507812 310.667969 " fill-opacity="1" fill-rule="nonzero"/></g><g clip-path="url(#24c6289ca5)"><path fill="#d10000" d="M 194.753906 313.972656 L 196.804688 313.972656 L 196.804688 325.417969 L 194.753906 325.417969 Z M 194.753906 313.972656 " fill-opacity="1" fill-rule="nonzero"/></g><g clip-path="url(#53d6c34db8)"><path fill="#d10000" d="M 200 307.363281 L 202.050781 307.363281 L 202.050781 325.417969 L 200 325.417969 Z M 200 307.363281 " fill-opacity="1" fill-rule="nonzero"/></g><g clip-path="url(#24412293de)"><path fill="#d10000" d="M 205.246094 313.972656 L 207.296875 313.972656 L 207.296875 325.417969 L 205.246094 325.417969 Z M 205.246094 313.972656 " fill-opacity="1" fill-rule="nonzero"/></g><g fill="#d10000" fill-opacity="1"><g transform="translate(1.143721, 373.742855)"><g><path d="M 0.296875 -24.640625 L 0.296875 -30.796875 L 21.953125 -30.796875 L 21.953125 -24.640625 L 14.625 -24.640625 L 14.625 0 L 7.609375 0 L 7.609375 -24.640625 Z M 0.296875 -24.640625 "/></g></g></g><g fill="#d10000" fill-opacity="1"><g transform="translate(21.587564, 373.742855)"><g><path d="M 9.25 -12.359375 L 9.25 0 L 2.234375 0 L 2.234375 -30.796875 L 9.25 -30.796875 L 9.25 -18.515625 L 19.1875 -18.515625 L 19.1875 -30.796875 L 26.203125 -30.796875 L 26.203125 0 L 19.1875 0 L 19.1875 -12.359375 Z M 9.25 -12.359375 "/></g></g></g><g fill="#d10000" fill-opacity="1"><g transform="translate(48.224688, 373.742855)"><g><path d="M 19.859375 -30.796875 L 19.859375 -24.640625 L 9.25 -24.640625 L 9.25 -18.515625 L 19.40625 -18.515625 L 19.40625 -12.359375 L 9.25 -12.359375 L 9.25 -6.15625 L 19.859375 -6.15625 L 19.859375 0 L 2.234375 0 L 2.234375 -30.796875 Z M 19.859375 -30.796875 "/></g></g></g><g fill="#d10000" fill-opacity="1"><g transform="translate(68.0716, 373.742855)"><g/></g></g><g fill="#d10000" fill-opacity="1"><g transform="translate(76.464681, 373.742855)"><g><path d="M 2.234375 -30.796875 L 13.46875 -30.796875 C 16.601562 -30.796875 19.140625 -29.984375 21.078125 -28.359375 C 23.023438 -26.742188 24 -24.394531 24 -21.3125 C 24 -18.226562 23.015625 -15.804688 21.046875 -14.046875 C 19.085938 -12.296875 16.5625 -11.421875 13.46875 -11.421875 L 9.25 -11.421875 L 9.25 0 L 2.234375 0 Z M 9.25 -17.015625 L 11.234375 -17.015625 C 12.804688 -17.015625 14.09375 -17.332031 15.09375 -17.96875 C 16.101562 -18.601562 16.609375 -19.644531 16.609375 -21.09375 C 16.609375 -22.5625 16.101562 -23.613281 15.09375 -24.25 C 14.09375 -24.882812 12.804688 -25.203125 11.234375 -25.203125 L 9.25 -25.203125 Z M 9.25 -17.015625 "/></g></g></g><g fill="#d10000" fill-opacity="1"><g transform="translate(99.520151, 373.742855)"><g><path d="M 17.875 -30.796875 L 30.3125 0 L 22.765625 0 L 20.5 -6.15625 L 8.765625 -6.15625 L 6.5 0 L -1.046875 0 L 11.390625 -30.796875 Z M 18.109375 -12.3125 L 14.671875 -21.28125 L 14.59375 -21.28125 L 11.15625 -12.3125 Z M 18.109375 -12.3125 "/></g></g></g><g fill="#d10000" fill-opacity="1"><g transform="translate(126.978085, 373.742855)"><g/></g></g><g clip-path="url(#61df514f35)"><g fill="#d10000" fill-opacity="1"><g transform="translate(135.371165, 373.742855)"><g><path d="M 1.078125 -8.09375 C 1.078125 -9.019531 1.289062 -9.90625 1.71875 -10.75 C 2.144531 -11.59375 2.742188 -12.363281 3.515625 -13.0625 C 4.285156 -13.757812 5.066406 -14.367188 5.859375 -14.890625 C 6.660156 -15.410156 7.566406 -15.945312 8.578125 -16.5 C 6.515625 -19.082031 5.484375 -21.359375 5.484375 -23.328125 C 5.484375 -25.765625 6.332031 -27.710938 8.03125 -29.171875 C 9.738281 -30.628906 12.160156 -31.359375 15.296875 -31.359375 C 18.191406 -31.359375 20.441406 -30.546875 22.046875 -28.921875 C 23.648438 -27.304688 24.453125 -25.441406 24.453125 -23.328125 C 24.453125 -22.460938 24.238281 -21.609375 23.8125 -20.765625 C 23.394531 -19.929688 22.890625 -19.222656 22.296875 -18.640625 C 21.710938 -18.054688 21.125 -17.539062 20.53125 -17.09375 C 19.9375 -16.644531 19.425781 -16.3125 19 -16.09375 L 18.359375 -15.75 L 22.46875 -11.5 C 23.363281 -11.894531 24.867188 -13.1875 26.984375 -15.375 L 31.3125 -11.125 C 29.925781 -9.53125 28.472656 -8.125 26.953125 -6.90625 L 33.59375 0 L 24.75 0 L 21.6875 -3.171875 C 20.738281 -2.503906 20.039062 -2.023438 19.59375 -1.734375 C 19.144531 -1.453125 18.476562 -1.085938 17.59375 -0.640625 C 16.71875 -0.191406 15.8125 0.117188 14.875 0.296875 C 13.9375 0.472656 12.910156 0.5625 11.796875 0.5625 C 10.828125 0.5625 9.867188 0.476562 8.921875 0.3125 C 7.972656 0.15625 7.019531 -0.125 6.0625 -0.53125 C 5.101562 -0.945312 4.265625 -1.46875 3.546875 -2.09375 C 2.828125 -2.71875 2.234375 -3.546875 1.765625 -4.578125 C 1.304688 -5.609375 1.078125 -6.78125 1.078125 -8.09375 Z M 15.296875 -26.390625 C 14.398438 -26.390625 13.726562 -26.101562 13.28125 -25.53125 C 12.832031 -24.957031 12.609375 -24.222656 12.609375 -23.328125 C 12.609375 -22.804688 12.796875 -22.226562 13.171875 -21.59375 C 13.546875 -20.957031 13.921875 -20.453125 14.296875 -20.078125 L 14.859375 -19.5625 C 17.148438 -20.800781 18.296875 -22.054688 18.296875 -23.328125 C 18.296875 -25.367188 17.296875 -26.390625 15.296875 -26.390625 Z M 17.140625 -7.84375 L 12.25 -12.65625 C 12.164062 -12.625 12.050781 -12.578125 11.90625 -12.515625 C 11.757812 -12.460938 11.5 -12.316406 11.125 -12.078125 C 10.75 -11.835938 10.425781 -11.570312 10.15625 -11.28125 C 9.882812 -11 9.628906 -10.617188 9.390625 -10.140625 C 9.148438 -9.671875 9.03125 -9.175781 9.03125 -8.65625 C 9.03125 -7.832031 9.378906 -7.195312 10.078125 -6.75 C 10.773438 -6.300781 11.582031 -6.078125 12.5 -6.078125 C 13.25 -6.078125 14.007812 -6.21875 14.78125 -6.5 C 15.550781 -6.789062 16.132812 -7.085938 16.53125 -7.390625 Z M 17.140625 -7.84375 "/></g></g></g></g><g fill="#d10000" fill-opacity="1"><g transform="translate(164.657214, 373.742855)"><g/></g></g><g fill="#d10000" fill-opacity="1"><g transform="translate(173.050294, 373.742855)"><g><path d="M 27.703125 0 L 26.234375 -18.25 L 26.0625 -18.25 L 19.75 -0.1875 L 15.5625 -0.1875 L 9.25 -18.25 L 9.078125 -18.25 L 7.609375 0 L 0.59375 0 L 3.359375 -30.796875 L 10.828125 -30.796875 L 17.65625 -13.03125 L 24.484375 -30.796875 L 31.953125 -30.796875 L 34.71875 0 Z M 27.703125 0 "/></g></g></g><g clip-path="url(#e690abf462)"><g fill="#d10000" fill-opacity="1"><g transform="translate(206.552248, 373.742855)"><g><path d="M 25.90625 -30.796875 L 25.90625 -10.9375 C 25.90625 -7.15625 24.882812 -4.289062 22.84375 -2.34375 C 20.800781 -0.40625 17.8125 0.5625 13.875 0.5625 C 9.945312 0.5625 6.960938 -0.40625 4.921875 -2.34375 C 2.878906 -4.289062 1.859375 -7.15625 1.859375 -10.9375 L 1.859375 -30.796875 L 8.890625 -30.796875 L 8.890625 -12.984375 C 8.890625 -10.492188 9.28125 -8.765625 10.0625 -7.796875 C 10.84375 -6.828125 12.113281 -6.34375 13.875 -6.34375 C 15.644531 -6.34375 16.921875 -6.828125 17.703125 -7.796875 C 18.492188 -8.765625 18.890625 -10.492188 18.890625 -12.984375 L 18.890625 -30.796875 Z M 25.90625 -30.796875 "/></g></g></g></g><g clip-path="url(#6ac7d8bcc0)"><g fill="#d10000" fill-opacity="1"><g transform="translate(232.517822, 373.742855)"><g><path d="M 13.59375 -31.359375 C 15.257812 -31.359375 16.882812 -31.113281 18.46875 -30.625 C 20.0625 -30.144531 21.25 -29.664062 22.03125 -29.1875 L 23.140625 -28.4375 L 20.3125 -22.84375 C 20.082031 -22.988281 19.769531 -23.179688 19.375 -23.421875 C 18.976562 -23.660156 18.226562 -23.976562 17.125 -24.375 C 16.03125 -24.769531 15.015625 -24.96875 14.078125 -24.96875 C 12.898438 -24.96875 11.992188 -24.71875 11.359375 -24.21875 C 10.734375 -23.726562 10.421875 -23.054688 10.421875 -22.203125 C 10.421875 -21.785156 10.566406 -21.394531 10.859375 -21.03125 C 11.160156 -20.675781 11.671875 -20.289062 12.390625 -19.875 C 13.109375 -19.46875 13.742188 -19.140625 14.296875 -18.890625 C 14.847656 -18.640625 15.691406 -18.265625 16.828125 -17.765625 C 18.828125 -16.921875 20.53125 -15.769531 21.9375 -14.3125 C 23.34375 -12.851562 24.046875 -11.207031 24.046875 -9.375 C 24.046875 -7.601562 23.726562 -6.054688 23.09375 -4.734375 C 22.457031 -3.421875 21.582031 -2.390625 20.46875 -1.640625 C 19.363281 -0.890625 18.140625 -0.335938 16.796875 0.015625 C 15.453125 0.378906 14 0.5625 12.4375 0.5625 C 11.09375 0.5625 9.769531 0.421875 8.46875 0.140625 C 7.175781 -0.128906 6.09375 -0.46875 5.21875 -0.875 C 4.351562 -1.289062 3.570312 -1.695312 2.875 -2.09375 C 2.175781 -2.488281 1.664062 -2.820312 1.34375 -3.09375 L 0.859375 -3.515625 L 4.375 -9.40625 C 4.664062 -9.15625 5.070312 -8.835938 5.59375 -8.453125 C 6.125 -8.066406 7.050781 -7.550781 8.375 -6.90625 C 9.707031 -6.257812 10.882812 -5.9375 11.90625 -5.9375 C 14.863281 -5.9375 16.34375 -6.941406 16.34375 -8.953125 C 16.34375 -9.378906 16.238281 -9.769531 16.03125 -10.125 C 15.820312 -10.488281 15.445312 -10.851562 14.90625 -11.21875 C 14.375 -11.582031 13.898438 -11.867188 13.484375 -12.078125 C 13.078125 -12.285156 12.40625 -12.609375 11.46875 -13.046875 C 10.539062 -13.484375 9.851562 -13.8125 9.40625 -14.03125 C 7.539062 -14.957031 6.097656 -16.109375 5.078125 -17.484375 C 4.054688 -18.867188 3.546875 -20.359375 3.546875 -21.953125 C 3.546875 -24.710938 4.566406 -26.96875 6.609375 -28.71875 C 8.648438 -30.476562 10.976562 -31.359375 13.59375 -31.359375 Z M 13.59375 -31.359375 "/></g></g></g></g><g fill="#d10000" fill-opacity="1"><g transform="translate(255.797149, 373.742855)"><g><path d="M 9.25 -30.796875 L 9.25 0 L 2.234375 0 L 2.234375 -30.796875 Z M 9.25 -30.796875 "/></g></g></g><g clip-path="url(#0dfe9c0463)"><g fill="#d10000" fill-opacity="1"><g transform="translate(265.496032, 373.742855)"><g><path d="M 18.625 -6.34375 C 19.695312 -6.34375 20.734375 -6.503906 21.734375 -6.828125 C 22.742188 -7.148438 23.488281 -7.460938 23.96875 -7.765625 L 24.671875 -8.25 L 27.65625 -2.28125 C 27.5625 -2.207031 27.425781 -2.109375 27.25 -1.984375 C 27.070312 -1.859375 26.664062 -1.625 26.03125 -1.28125 C 25.394531 -0.945312 24.71875 -0.65625 24 -0.40625 C 23.28125 -0.15625 22.332031 0.0664062 21.15625 0.265625 C 19.988281 0.460938 18.785156 0.5625 17.546875 0.5625 C 14.679688 0.5625 11.96875 -0.140625 9.40625 -1.546875 C 6.84375 -2.953125 4.773438 -4.882812 3.203125 -7.34375 C 1.640625 -9.8125 0.859375 -12.476562 0.859375 -15.34375 C 0.859375 -17.507812 1.316406 -19.585938 2.234375 -21.578125 C 3.160156 -23.566406 4.390625 -25.269531 5.921875 -26.6875 C 7.453125 -28.101562 9.234375 -29.234375 11.265625 -30.078125 C 13.304688 -30.929688 15.398438 -31.359375 17.546875 -31.359375 C 19.535156 -31.359375 21.367188 -31.117188 23.046875 -30.640625 C 24.722656 -30.171875 25.910156 -29.703125 26.609375 -29.234375 L 27.65625 -28.515625 L 24.671875 -22.546875 C 24.492188 -22.691406 24.234375 -22.867188 23.890625 -23.078125 C 23.546875 -23.296875 22.847656 -23.578125 21.796875 -23.921875 C 20.753906 -24.273438 19.695312 -24.453125 18.625 -24.453125 C 16.9375 -24.453125 15.421875 -24.175781 14.078125 -23.625 C 12.734375 -23.082031 11.664062 -22.363281 10.875 -21.46875 C 10.09375 -20.570312 9.492188 -19.601562 9.078125 -18.5625 C 8.671875 -17.53125 8.46875 -16.484375 8.46875 -15.421875 C 8.46875 -13.078125 9.34375 -10.976562 11.09375 -9.125 C 12.851562 -7.269531 15.363281 -6.34375 18.625 -6.34375 Z M 18.625 -6.34375 "/></g></g></g></g><g fill="#d10000" fill-opacity="1"><g transform="translate(291.797381, 373.742855)"><g/></g></g><g clip-path="url(#077c6fb389)"><g fill="#d10000" fill-opacity="1"><g transform="translate(300.190461, 373.742855)"><g><path d="M 13.59375 -31.359375 C 15.257812 -31.359375 16.882812 -31.113281 18.46875 -30.625 C 20.0625 -30.144531 21.25 -29.664062 22.03125 -29.1875 L 23.140625 -28.4375 L 20.3125 -22.84375 C 20.082031 -22.988281 19.769531 -23.179688 19.375 -23.421875 C 18.976562 -23.660156 18.226562 -23.976562 17.125 -24.375 C 16.03125 -24.769531 15.015625 -24.96875 14.078125 -24.96875 C 12.898438 -24.96875 11.992188 -24.71875 11.359375 -24.21875 C 10.734375 -23.726562 10.421875 -23.054688 10.421875 -22.203125 C 10.421875 -21.785156 10.566406 -21.394531 10.859375 -21.03125 C 11.160156 -20.675781 11.671875 -20.289062 12.390625 -19.875 C 13.109375 -19.46875 13.742188 -19.140625 14.296875 -18.890625 C 14.847656 -18.640625 15.691406 -18.265625 16.828125 -17.765625 C 18.828125 -16.921875 20.53125 -15.769531 21.9375 -14.3125 C 23.34375 -12.851562 24.046875 -11.207031 24.046875 -9.375 C 24.046875 -7.601562 23.726562 -6.054688 23.09375 -4.734375 C 22.457031 -3.421875 21.582031 -2.390625 20.46875 -1.640625 C 19.363281 -0.890625 18.140625 -0.335938 16.796875 0.015625 C 15.453125 0.378906 14 0.5625 12.4375 0.5625 C 11.09375 0.5625 9.769531 0.421875 8.46875 0.140625 C 7.175781 -0.128906 6.09375 -0.46875 5.21875 -0.875 C 4.351562 -1.289062 3.570312 -1.695312 2.875 -2.09375 C 2.175781 -2.488281 1.664062 -2.820312 1.34375 -3.09375 L 0.859375 -3.515625 L 4.375 -9.40625 C 4.664062 -9.15625 5.070312 -8.835938 5.59375 -8.453125 C 6.125 -8.066406 7.050781 -7.550781 8.375 -6.90625 C 9.707031 -6.257812 10.882812 -5.9375 11.90625 -5.9375 C 14.863281 -5.9375 16.34375 -6.941406 16.34375 -8.953125 C 16.34375 -9.378906 16.238281 -9.769531 16.03125 -10.125 C 15.820312 -10.488281 15.445312 -10.851562 14.90625 -11.21875 C 14.375 -11.582031 13.898438 -11.867188 13.484375 -12.078125 C 13.078125 -12.285156 12.40625 -12.609375 11.46875 -13.046875 C 10.539062 -13.484375 9.851562 -13.8125 9.40625 -14.03125 C 7.539062 -14.957031 6.097656 -16.109375 5.078125 -17.484375 C 4.054688 -18.867188 3.546875 -20.359375 3.546875 -21.953125 C 3.546875 -24.710938 4.566406 -26.96875 6.609375 -28.71875 C 8.648438 -30.476562 10.976562 -31.359375 13.59375 -31.359375 Z M 13.59375 -31.359375 "/></g></g></g></g><g fill="#d10000" fill-opacity="1"><g transform="translate(323.469789, 373.742855)"><g><path d="M 2.234375 -30.796875 L 13.46875 -30.796875 C 16.601562 -30.796875 19.140625 -29.984375 21.078125 -28.359375 C 23.023438 -26.742188 24 -24.394531 24 -21.3125 C 24 -18.226562 23.015625 -15.804688 21.046875 -14.046875 C 19.085938 -12.296875 16.5625 -11.421875 13.46875 -11.421875 L 9.25 -11.421875 L 9.25 0 L 2.234375 0 Z M 9.25 -17.015625 L 11.234375 -17.015625 C 12.804688 -17.015625 14.09375 -17.332031 15.09375 -17.96875 C 16.101562 -18.601562 16.609375 -19.644531 16.609375 -21.09375 C 16.609375 -22.5625 16.101562 -23.613281 15.09375 -24.25 C 14.09375 -24.882812 12.804688 -25.203125 11.234375 -25.203125 L 9.25 -25.203125 Z M 9.25 -17.015625 "/></g></g></g><g fill="#d10000" fill-opacity="1"><g transform="translate(346.525259, 373.742855)"><g><path d="M 19.859375 -30.796875 L 19.859375 -24.640625 L 9.25 -24.640625 L 9.25 -18.515625 L 19.40625 -18.515625 L 19.40625 -12.359375 L 9.25 -12.359375 L 9.25 -6.15625 L 19.859375 -6.15625 L 19.859375 0 L 2.234375 0 L 2.234375 -30.796875 Z M 19.859375 -30.796875 "/></g></g></g><g clip-path="url(#9bc22a4ac1)"><g fill="#d10000" fill-opacity="1"><g transform="translate(366.372171, 373.742855)"><g><path d="M 18.625 -6.34375 C 19.695312 -6.34375 20.734375 -6.503906 21.734375 -6.828125 C 22.742188 -7.148438 23.488281 -7.460938 23.96875 -7.765625 L 24.671875 -8.25 L 27.65625 -2.28125 C 27.5625 -2.207031 27.425781 -2.109375 27.25 -1.984375 C 27.070312 -1.859375 26.664062 -1.625 26.03125 -1.28125 C 25.394531 -0.945312 24.71875 -0.65625 24 -0.40625 C 23.28125 -0.15625 22.332031 0.0664062 21.15625 0.265625 C 19.988281 0.460938 18.785156 0.5625 17.546875 0.5625 C 14.679688 0.5625 11.96875 -0.140625 9.40625 -1.546875 C 6.84375 -2.953125 4.773438 -4.882812 3.203125 -7.34375 C 1.640625 -9.8125 0.859375 -12.476562 0.859375 -15.34375 C 0.859375 -17.507812 1.316406 -19.585938 2.234375 -21.578125 C 3.160156 -23.566406 4.390625 -25.269531 5.921875 -26.6875 C 7.453125 -28.101562 9.234375 -29.234375 11.265625 -30.078125 C 13.304688 -30.929688 15.398438 -31.359375 17.546875 -31.359375 C 19.535156 -31.359375 21.367188 -31.117188 23.046875 -30.640625 C 24.722656 -30.171875 25.910156 -29.703125 26.609375 -29.234375 L 27.65625 -28.515625 L 24.671875 -22.546875 C 24.492188 -22.691406 24.234375 -22.867188 23.890625 -23.078125 C 23.546875 -23.296875 22.847656 -23.578125 21.796875 -23.921875 C 20.753906 -24.273438 19.695312 -24.453125 18.625 -24.453125 C 16.9375 -24.453125 15.421875 -24.175781 14.078125 -23.625 C 12.734375 -23.082031 11.664062 -22.363281 10.875 -21.46875 C 10.09375 -20.570312 9.492188 -19.601562 9.078125 -18.5625 C 8.671875 -17.53125 8.46875 -16.484375 8.46875 -15.421875 C 8.46875 -13.078125 9.34375 -10.976562 11.09375 -9.125 C 12.851562 -7.269531 15.363281 -6.34375 18.625 -6.34375 Z M 18.625 -6.34375 "/></g></g></g></g><g fill="#d10000" fill-opacity="1"><g transform="translate(392.67352, 373.742855)"><g><path d="M 9.25 -30.796875 L 9.25 0 L 2.234375 0 L 2.234375 -30.796875 Z M 9.25 -30.796875 "/></g></g></g><g fill="#d10000" fill-opacity="1"><g transform="translate(402.37238, 373.742855)"><g><path d="M 17.875 -30.796875 L 30.3125 0 L 22.765625 0 L 20.5 -6.15625 L 8.765625 -6.15625 L 6.5 0 L -1.046875 0 L 11.390625 -30.796875 Z M 18.109375 -12.3125 L 14.671875 -21.28125 L 14.59375 -21.28125 L 11.15625 -12.3125 Z M 18.109375 -12.3125 "/></g></g></g><g fill="#d10000" fill-opacity="1"><g transform="translate(429.830338, 373.742855)"><g><path d="M 9.25 -30.796875 L 9.25 -6.15625 L 19.859375 -6.15625 L 19.859375 0 L 2.234375 0 L 2.234375 -30.796875 Z M 9.25 -30.796875 "/></g></g></g><g fill="#d10000" fill-opacity="1"><g transform="translate(449.117595, 373.742855)"><g><path d="M 9.25 -30.796875 L 9.25 0 L 2.234375 0 L 2.234375 -30.796875 Z M 9.25 -30.796875 "/></g></g></g><g clip-path="url(#919534884c)"><g fill="#d10000" fill-opacity="1"><g transform="translate(458.816455, 373.742855)"><g><path d="M 13.59375 -31.359375 C 15.257812 -31.359375 16.882812 -31.113281 18.46875 -30.625 C 20.0625 -30.144531 21.25 -29.664062 22.03125 -29.1875 L 23.140625 -28.4375 L 20.3125 -22.84375 C 20.082031 -22.988281 19.769531 -23.179688 19.375 -23.421875 C 18.976562 -23.660156 18.226562 -23.976562 17.125 -24.375 C 16.03125 -24.769531 15.015625 -24.96875 14.078125 -24.96875 C 12.898438 -24.96875 11.992188 -24.71875 11.359375 -24.21875 C 10.734375 -23.726562 10.421875 -23.054688 10.421875 -22.203125 C 10.421875 -21.785156 10.566406 -21.394531 10.859375 -21.03125 C 11.160156 -20.675781 11.671875 -20.289062 12.390625 -19.875 C 13.109375 -19.46875 13.742188 -19.140625 14.296875 -18.890625 C 14.847656 -18.640625 15.691406 -18.265625 16.828125 -17.765625 C 18.828125 -16.921875 20.53125 -15.769531 21.9375 -14.3125 C 23.34375 -12.851562 24.046875 -11.207031 24.046875 -9.375 C 24.046875 -7.601562 23.726562 -6.054688 23.09375 -4.734375 C 22.457031 -3.421875 21.582031 -2.390625 20.46875 -1.640625 C 19.363281 -0.890625 18.140625 -0.335938 16.796875 0.015625 C 15.453125 0.378906 14 0.5625 12.4375 0.5625 C 11.09375 0.5625 9.769531 0.421875 8.46875 0.140625 C 7.175781 -0.128906 6.09375 -0.46875 5.21875 -0.875 C 4.351562 -1.289062 3.570312 -1.695312 2.875 -2.09375 C 2.175781 -2.488281 1.664062 -2.820312 1.34375 -3.09375 L 0.859375 -3.515625 L 4.375 -9.40625 C 4.664062 -9.15625 5.070312 -8.835938 5.59375 -8.453125 C 6.125 -8.066406 7.050781 -7.550781 8.375 -6.90625 C 9.707031 -6.257812 10.882812 -5.9375 11.90625 -5.9375 C 14.863281 -5.9375 16.34375 -6.941406 16.34375 -8.953125 C 16.34375 -9.378906 16.238281 -9.769531 16.03125 -10.125 C 15.820312 -10.488281 15.445312 -10.851562 14.90625 -11.21875 C 14.375 -11.582031 13.898438 -11.867188 13.484375 -12.078125 C 13.078125 -12.285156 12.40625 -12.609375 11.46875 -13.046875 C 10.539062 -13.484375 9.851562 -13.8125 9.40625 -14.03125 C 7.539062 -14.957031 6.097656 -16.109375 5.078125 -17.484375 C 4.054688 -18.867188 3.546875 -20.359375 3.546875 -21.953125 C 3.546875 -24.710938 4.566406 -26.96875 6.609375 -28.71875 C 8.648438 -30.476562 10.976562 -31.359375 13.59375 -31.359375 Z M 13.59375 -31.359375 "/></g></g></g></g><g fill="#d10000" fill-opacity="1"><g transform="translate(482.095782, 373.742855)"><g><path d="M 0.296875 -24.640625 L 0.296875 -30.796875 L 21.953125 -30.796875 L 21.953125 -24.640625 L 14.625 -24.640625 L 14.625 0 L 7.609375 0 L 7.609375 -24.640625 Z M 0.296875 -24.640625 "/></g></g></g><g clip-path="url(#f4a91787f3)"><path stroke-linecap="butt" transform="matrix(1.489566, 0, 0, 1.489566, 298.09601, 326.564039)" fill="none" stroke-linejoin="miter" d="M 0.00110503 2.500745 L 138.619008 2.500745 " stroke="#d10000" stroke-width="5" stroke-opacity="1" stroke-miterlimit="4"/></g><g clip-path="url(#6fe5560bf9)"><path fill="#d10000" d="M 298.1875 317.257812 L 300.242188 317.257812 L 300.242188 325 L 298.1875 325 Z M 298.1875 317.257812 " fill-opacity="1" fill-rule="nonzero"/></g><g clip-path="url(#2c096c67bc)"><path fill="#d10000" d="M 303.433594 313.238281 L 305.488281 313.238281 L 305.488281 325.003906 L 303.433594 325.003906 Z M 303.433594 313.238281 " fill-opacity="1" fill-rule="nonzero"/></g><g clip-path="url(#98c15a177c)"><path fill="#d10000" d="M 308.679688 309.4375 L 310.734375 309.4375 L 310.734375 325.003906 L 308.679688 325.003906 Z M 308.679688 309.4375 " fill-opacity="1" fill-rule="nonzero"/></g><g clip-path="url(#c0aa0bacb1)"><path fill="#d10000" d="M 313.925781 296.691406 L 315.976562 296.691406 L 315.976562 325.003906 L 313.925781 325.003906 Z M 313.925781 296.691406 " fill-opacity="1" fill-rule="nonzero"/></g><g clip-path="url(#8510fd228d)"><path fill="#d10000" d="M 319.171875 300.835938 L 321.222656 300.835938 L 321.222656 325.003906 L 319.171875 325.003906 Z M 319.171875 300.835938 " fill-opacity="1" fill-rule="nonzero"/></g><g clip-path="url(#1c3d3f3c43)"><path fill="#d10000" d="M 324.417969 305.976562 L 326.46875 305.976562 L 326.46875 325.003906 L 324.417969 325.003906 Z M 324.417969 305.976562 " fill-opacity="1" fill-rule="nonzero"/></g><g clip-path="url(#59ce92e757)"><path fill="#d10000" d="M 329.664062 319.046875 L 331.714844 319.046875 L 331.714844 325.003906 L 329.664062 325.003906 Z M 329.664062 319.046875 " fill-opacity="1" fill-rule="nonzero"/></g><g clip-path="url(#c209f435fa)"><path fill="#d10000" d="M 334.910156 316.144531 L 336.960938 316.144531 L 336.960938 325.003906 L 334.910156 325.003906 Z M 334.910156 316.144531 " fill-opacity="1" fill-rule="nonzero"/></g><g clip-path="url(#96906a03e5)"><path fill="#d10000" d="M 340.15625 301.171875 L 342.207031 301.171875 L 342.207031 325.003906 L 340.15625 325.003906 Z M 340.15625 301.171875 " fill-opacity="1" fill-rule="nonzero"/></g><g clip-path="url(#2752a8632c)"><path fill="#d10000" d="M 345.398438 304.632812 L 347.453125 304.632812 L 347.453125 325.003906 L 345.398438 325.003906 Z M 345.398438 304.632812 " fill-opacity="1" fill-rule="nonzero"/></g><g clip-path="url(#b5a4e362ae)"><path fill="#d10000" d="M 350.644531 300.171875 L 352.699219 300.171875 L 352.699219 325.003906 L 350.644531 325.003906 Z M 350.644531 300.171875 " fill-opacity="1" fill-rule="nonzero"/></g><g clip-path="url(#bf31966dae)"><path fill="#d10000" d="M 355.890625 309.777344 L 357.945312 309.777344 L 357.945312 325.003906 L 355.890625 325.003906 Z M 355.890625 309.777344 " fill-opacity="1" fill-rule="nonzero"/></g><g clip-path="url(#30f753a045)"><path fill="#d10000" d="M 361.136719 314.1875 L 363.1875 314.1875 L 363.1875 325.003906 L 361.136719 325.003906 Z M 361.136719 314.1875 " fill-opacity="1" fill-rule="nonzero"/></g><g clip-path="url(#35ec732ad5)"><path fill="#d10000" d="M 366.382812 306.3125 L 368.4375 306.3125 L 368.4375 325.003906 L 366.382812 325.003906 Z M 366.382812 306.3125 " fill-opacity="1" fill-rule="nonzero"/></g><g clip-path="url(#850c1e4d1d)"><path fill="#d10000" d="M 371.628906 301.117188 L 373.683594 301.117188 L 373.683594 325 L 371.628906 325 Z M 371.628906 301.117188 " fill-opacity="1" fill-rule="nonzero"/></g><g clip-path="url(#82e9a12482)"><path fill="#d10000" d="M 376.875 296.691406 L 378.925781 296.691406 L 378.925781 325.003906 L 376.875 325.003906 Z M 376.875 296.691406 " fill-opacity="1" fill-rule="nonzero"/></g><g clip-path="url(#41009a4aae)"><path fill="#d10000" d="M 382.121094 310.25 L 384.171875 310.25 L 384.171875 325.003906 L 382.121094 325.003906 Z M 382.121094 310.25 " fill-opacity="1" fill-rule="nonzero"/></g><g clip-path="url(#6c9c6ace09)"><path fill="#d10000" d="M 387.367188 313.558594 L 389.417969 313.558594 L 389.417969 325.003906 L 387.367188 325.003906 Z M 387.367188 313.558594 " fill-opacity="1" fill-rule="nonzero"/></g><g clip-path="url(#a9b23adf6b)"><path fill="#d10000" d="M 392.609375 317.652344 L 394.664062 317.652344 L 394.664062 325.003906 L 392.609375 325.003906 Z M 392.609375 317.652344 " fill-opacity="1" fill-rule="nonzero"/></g><g clip-path="url(#d6cd5d53f2)"><path fill="#d10000" d="M 397.859375 313.558594 L 399.910156 313.558594 L 399.910156 325.003906 L 397.859375 325.003906 Z M 397.859375 313.558594 " fill-opacity="1" fill-rule="nonzero"/></g><g clip-path="url(#7910035ddd)"><path fill="#d10000" d="M 402.75 317.257812 L 404.800781 317.257812 L 404.800781 325 L 402.75 325 Z M 402.75 317.257812 " fill-opacity="1" fill-rule="nonzero"/></g><g clip-path="url(#6e192f732e)"><path fill="#d10000" d="M 407.996094 313.238281 L 410.050781 313.238281 L 410.050781 325.003906 L 407.996094 325.003906 Z M 407.996094 313.238281 " fill-opacity="1" fill-rule="nonzero"/></g><g clip-path="url(#d97b661d46)"><path fill="#d10000" d="M 413.242188 309.4375 L 415.292969 309.4375 L 415.292969 325.003906 L 413.242188 325.003906 Z M 413.242188 309.4375 " fill-opacity="1" fill-rule="nonzero"/></g><g clip-path="url(#b0986fa1b9)"><path fill="#d10000" d="M 418.488281 296.691406 L 420.539062 296.691406 L 420.539062 325.003906 L 418.488281 325.003906 Z M 418.488281 296.691406 " fill-opacity="1" fill-rule="nonzero"/></g><g clip-path="url(#2d0ced36ff)"><path fill="#d10000" d="M 423.734375 300.835938 L 425.785156 300.835938 L 425.785156 325.003906 L 423.734375 325.003906 Z M 423.734375 300.835938 " fill-opacity="1" fill-rule="nonzero"/></g><g clip-path="url(#5968785bdf)"><path fill="#d10000" d="M 428.976562 305.976562 L 431.03125 305.976562 L 431.03125 325.003906 L 428.976562 325.003906 Z M 428.976562 305.976562 " fill-opacity="1" fill-rule="nonzero"/></g><g clip-path="url(#125967bce2)"><path fill="#d10000" d="M 434.222656 319.046875 L 436.277344 319.046875 L 436.277344 325.003906 L 434.222656 325.003906 Z M 434.222656 319.046875 " fill-opacity="1" fill-rule="nonzero"/></g><g clip-path="url(#9674eecc74)"><path fill="#d10000" d="M 439.46875 316.144531 L 441.519531 316.144531 L 441.519531 325.003906 L 439.46875 325.003906 Z M 439.46875 316.144531 " fill-opacity="1" fill-rule="nonzero"/></g><g clip-path="url(#3185452e0b)"><path fill="#d10000" d="M 444.714844 301.171875 L 446.769531 301.171875 L 446.769531 325.003906 L 444.714844 325.003906 Z M 444.714844 301.171875 " fill-opacity="1" fill-rule="nonzero"/></g><g clip-path="url(#5b09fbfb3e)"><path fill="#d10000" d="M 449.960938 304.632812 L 452.015625 304.632812 L 452.015625 325.003906 L 449.960938 325.003906 Z M 449.960938 304.632812 " fill-opacity="1" fill-rule="nonzero"/></g><g clip-path="url(#a920292e04)"><path fill="#d10000" d="M 455.207031 300.171875 L 457.257812 300.171875 L 457.257812 325.003906 L 455.207031 325.003906 Z M 455.207031 300.171875 " fill-opacity="1" fill-rule="nonzero"/></g><g clip-path="url(#a7f60d6345)"><path fill="#d10000" d="M 460.453125 309.777344 L 462.503906 309.777344 L 462.503906 325.003906 L 460.453125 325.003906 Z M 460.453125 309.777344 " fill-opacity="1" fill-rule="nonzero"/></g><g clip-path="url(#d86e7aa6a0)"><path fill="#d10000" d="M 465.699219 314.1875 L 467.75 314.1875 L 467.75 325.003906 L 465.699219 325.003906 Z M 465.699219 314.1875 " fill-opacity="1" fill-rule="nonzero"/></g><g clip-path="url(#4a6454ca47)"><path fill="#d10000" d="M 470.941406 306.3125 L 472.996094 306.3125 L 472.996094 325.003906 L 470.941406 325.003906 Z M 470.941406 306.3125 " fill-opacity="1" fill-rule="nonzero"/></g><g clip-path="url(#ea402a83a4)"><path fill="#d10000" d="M 476.191406 301.117188 L 478.242188 301.117188 L 478.242188 325 L 476.191406 325 Z M 476.191406 301.117188 " fill-opacity="1" fill-rule="nonzero"/></g><g clip-path="url(#1f4dabdb66)"><path fill="#d10000" d="M 481.4375 296.691406 L 483.488281 296.691406 L 483.488281 325.003906 L 481.4375 325.003906 Z M 481.4375 296.691406 " fill-opacity="1" fill-rule="nonzero"/></g><g clip-path="url(#dfacf06a31)"><path fill="#d10000" d="M 486.683594 310.25 L 488.734375 310.25 L 488.734375 325.003906 L 486.683594 325.003906 Z M 486.683594 310.25 " fill-opacity="1" fill-rule="nonzero"/></g><g clip-path="url(#8d4c7fceff)"><path fill="#d10000" d="M 491.925781 313.558594 L 493.980469 313.558594 L 493.980469 325.003906 L 491.925781 325.003906 Z M 491.925781 313.558594 " fill-opacity="1" fill-rule="nonzero"/></g><g clip-path="url(#37977536af)"><path fill="#d10000" d="M 497.171875 306.945312 L 499.226562 306.945312 L 499.226562 325 L 497.171875 325 Z M 497.171875 306.945312 " fill-opacity="1" fill-rule="nonzero"/></g><g clip-path="url(#bdb87148ce)"><path fill="#d10000" d="M 502.417969 313.558594 L 504.46875 313.558594 L 504.46875 325.003906 L 502.417969 325.003906 Z M 502.417969 313.558594 " fill-opacity="1" fill-rule="nonzero"/></g></svg>