<svg xmlns="http://www.w3.org/2000/svg" xmlns:xlink="http://www.w3.org/1999/xlink" width="500" zoomAndPan="magnify" viewBox="0 0 375 374.999991" height="500" preserveAspectRatio="xMidYMid meet" version="1.0"><defs><g/><clipPath id="11739f82a5"><path d="M 82.355469 324.035156 L 328.78125 324.035156 L 328.78125 336.734375 L 82.355469 336.734375 Z M 82.355469 324.035156 " clip-rule="nonzero"/></clipPath><clipPath id="8fff2db737"><path d="M 315.996094 86.625 L 328.78125 86.625 L 328.78125 333.167969 L 315.996094 333.167969 Z M 315.996094 86.625 " clip-rule="nonzero"/></clipPath></defs><rect x="-37.5" width="450" fill="#ffffff" y="-37.499999" height="449.999989" fill-opacity="1"/><rect x="-37.5" width="450" fill="#e4e4e4" y="-37.499999" height="449.999989" fill-opacity="1"/><g fill="#000000" fill-opacity="1"><g transform="translate(40.864659, 79.412664)"><g><path d="M 2.296875 0 L 2.296875 -9.234375 L 8.671875 -9.234375 C 11.316406 -9.234375 13.164062 -9.859375 14.21875 -11.109375 C 15.269531 -12.367188 15.796875 -14.195312 15.796875 -16.59375 L 15.796875 -43.359375 L 25.703125 -43.359375 L 25.703125 -15.859375 C 25.703125 -10.859375 24.316406 -6.960938 21.546875 -4.171875 C 18.785156 -1.390625 14.703125 0 9.296875 0 Z M 2.296875 0 "/></g></g></g><g fill="#000000" fill-opacity="1"><g transform="translate(46.120227, 143.524794)"><g><path d="M 5.203125 0 L 5.203125 -43.359375 L 15.046875 -43.359375 L 15.046875 0 Z M 5.203125 0 "/></g></g></g><g fill="#000000" fill-opacity="1"><g transform="translate(34.447639, 207.636924)"><g><path d="M 5.203125 0 L 5.203125 -43.359375 L 23.71875 -43.359375 C 27.019531 -43.359375 29.890625 -42.757812 32.328125 -41.5625 C 34.765625 -40.363281 36.644531 -38.648438 37.96875 -36.421875 C 39.289062 -34.191406 39.953125 -31.523438 39.953125 -28.421875 C 39.953125 -25.242188 39.226562 -22.507812 37.78125 -20.21875 C 36.332031 -17.925781 34.3125 -16.203125 31.71875 -15.046875 L 40.6875 0 L 29.296875 0 L 21.546875 -13.5 L 15.046875 -13.5 L 15.046875 0 Z M 14.921875 -21.796875 L 22.421875 -21.796875 C 24.859375 -21.796875 26.726562 -22.363281 28.03125 -23.5 C 29.332031 -24.632812 29.984375 -26.257812 29.984375 -28.375 C 29.984375 -30.476562 29.332031 -32.097656 28.03125 -33.234375 C 26.726562 -34.367188 24.859375 -34.9375 22.421875 -34.9375 L 14.921875 -34.9375 Z M 14.921875 -21.796875 "/></g></g></g><g fill="#000000" fill-opacity="1"><g transform="translate(37.481931, 271.749054)"><g><path d="M 5.203125 0 L 5.203125 -43.359375 L 33.6875 -43.359375 L 33.6875 -35.0625 L 14.984375 -35.0625 L 14.984375 -26.078125 L 32.015625 -26.078125 L 32.015625 -17.84375 L 14.984375 -17.84375 L 14.984375 -8.359375 L 34.375 -8.359375 L 34.375 0 Z M 5.203125 0 "/></g></g></g><g fill="#000000" fill-opacity="1"><g transform="translate(32.719979, 335.861185)"><g><path d="M 32.015625 0 L 32.015625 -17.46875 L 15.046875 -17.46875 L 15.046875 0 L 5.203125 0 L 5.203125 -43.359375 L 15.046875 -43.359375 L 15.046875 -26.6875 L 32.015625 -26.6875 L 32.015625 -43.359375 L 41.875 -43.359375 L 41.875 0 Z M 32.015625 0 "/></g></g></g><g fill="#000000" fill-opacity="1"><g transform="translate(41.093795, 79.092713)"><g><path d="M 2.296875 0 L 2.296875 -9.234375 L 8.671875 -9.234375 C 11.316406 -9.234375 13.164062 -9.859375 14.21875 -11.109375 C 15.269531 -12.367188 15.796875 -14.195312 15.796875 -16.59375 L 15.796875 -43.359375 L 25.703125 -43.359375 L 25.703125 -15.859375 C 25.703125 -10.859375 24.316406 -6.960938 21.546875 -4.171875 C 18.785156 -1.390625 14.703125 0 9.296875 0 Z M 2.296875 0 "/></g></g></g><g fill="#000000" fill-opacity="1"><g transform="translate(84.697673, 79.092713)"><g><path d="M 5.203125 0 L 5.203125 -43.359375 L 33.6875 -43.359375 L 33.6875 -35.0625 L 14.984375 -35.0625 L 14.984375 -26.078125 L 32.015625 -26.078125 L 32.015625 -17.84375 L 14.984375 -17.84375 L 14.984375 -8.359375 L 34.375 -8.359375 L 34.375 0 Z M 5.203125 0 "/></g></g></g><g fill="#000000" fill-opacity="1"><g transform="translate(135.052418, 79.092713)"><g><path d="M 5.203125 0 L 5.203125 -43.359375 L 22.359375 -43.359375 C 26.941406 -43.359375 30.945312 -42.445312 34.375 -40.625 C 37.800781 -38.8125 40.460938 -36.273438 42.359375 -33.015625 C 44.265625 -29.753906 45.21875 -25.972656 45.21875 -21.671875 C 45.21875 -17.335938 44.265625 -13.550781 42.359375 -10.3125 C 40.460938 -7.070312 37.800781 -4.539062 34.375 -2.71875 C 30.945312 -0.90625 26.941406 0 22.359375 0 Z M 15.046875 -9.046875 L 22.171875 -9.046875 C 24.734375 -9.046875 26.984375 -9.570312 28.921875 -10.625 C 30.859375 -11.675781 32.375 -13.148438 33.46875 -15.046875 C 34.570312 -16.953125 35.125 -19.160156 35.125 -21.671875 C 35.125 -24.234375 34.570312 -26.453125 33.46875 -28.328125 C 32.375 -30.210938 30.847656 -31.679688 28.890625 -32.734375 C 26.929688 -33.785156 24.648438 -34.3125 22.046875 -34.3125 L 15.046875 -34.3125 Z M 15.046875 -9.046875 "/></g></g></g><g fill="#000000" fill-opacity="1"><g transform="translate(195.688295, 79.092713)"><g><path d="M 5.203125 0 L 5.203125 -43.359375 L 15.046875 -43.359375 L 15.046875 0 Z M 5.203125 0 "/></g></g></g><g fill="#000000" fill-opacity="1"><g transform="translate(228.76331, 79.092713)"><g><path d="M 0.5625 0 L 17.78125 -43.359375 L 27.4375 -43.359375 L 44.65625 0 L 34.125 0 L 31.21875 -7.5 L 14 -7.5 L 11.09375 0 Z M 16.53125 -15.234375 L 28.734375 -15.234375 L 22.609375 -31.09375 Z M 16.53125 -15.234375 "/></g></g></g><g fill="#000000" fill-opacity="1"><g transform="translate(286.797924, 79.092713)"><g><path d="M 32.015625 0 L 32.015625 -17.46875 L 15.046875 -17.46875 L 15.046875 0 L 5.203125 0 L 5.203125 -43.359375 L 15.046875 -43.359375 L 15.046875 -26.6875 L 32.015625 -26.6875 L 32.015625 -43.359375 L 41.875 -43.359375 L 41.875 0 Z M 32.015625 0 "/></g></g></g><g clip-path="url(#11739f82a5)"><path fill="#000000" d="M 82.355469 324.035156 L 328.757812 324.035156 L 328.757812 336.734375 L 82.355469 336.734375 Z M 82.355469 324.035156 " fill-opacity="1" fill-rule="nonzero"/></g><g clip-path="url(#8fff2db737)"><path fill="#000000" d="M 315.996094 333.167969 L 315.996094 86.636719 L 328.78125 86.636719 L 328.78125 333.167969 Z M 315.996094 333.167969 " fill-opacity="1" fill-rule="nonzero"/></g></svg>